<svg width="120" height="36" viewBox="0 0 120 36" fill="none" xmlns="http://www.w3.org/2000/svg">
<g clip-path="url(#clip0_242_4653)">
<path d="M77.4005 10.3924L67.4914 35.5H61.7267L51.8176 10.3924H57.0581L64.6329 30.6881L72.16 10.3924H77.4005Z" fill="#2A323E"/>
<path d="M111.393 10.6933H90.5178V15.6938H111.393V10.6933Z" fill="#6099F7"/>
<path d="M106.392 10.6933V35.4188H111.393V10.6933H106.392Z" fill="#6099F7"/>
<path d="M108.92 16.8138C105.217 19.394 101.516 21.9755 97.8132 24.5557C96.5213 25.4787 95.984 27.0225 96.4354 28.2846C96.8509 29.4464 97.9494 29.9323 98.1786 30.0279H103.043C103.056 31.8523 103.07 33.6756 103.084 35.5H96.5977C95.6664 35.2158 94.2802 34.6403 92.9906 33.4332C92.2718 32.7598 90.894 31.4702 90.5584 29.3795C90.3005 27.77 90.7901 26.4996 91.085 25.7318C91.9423 23.5062 93.5076 22.1773 94.3685 21.5564C98.1523 18.7863 101.935 16.0162 105.718 13.2473C106.785 14.4365 107.852 15.6257 108.92 16.8138Z" fill="#6099F7"/>
<path d="M9.24522 9.46223V10.6419H15.4254V14.9344H9.24522V35.5H4.29246V14.9344H0V10.6419H4.29246V9.93387C4.29246 4.03785 7.68942 0.5 13.8219 0.5H15.472V4.41516H13.9627C11.0386 4.41516 9.24522 6.25513 9.24522 9.46223Z" fill="#2A323E"/>
<path d="M18.9655 8.6133C20.6455 9.28911 22.3267 9.96612 24.0067 10.6419V35.5H19.0061C18.993 26.5378 18.9787 17.5755 18.9644 8.6133H18.9655ZM23.9661 8.6133H18.9655V3.61279H23.9661V8.6133Z" fill="#2A323E"/>
<path d="M80.8296 8.6133C82.5095 9.28911 84.1907 9.96612 85.8707 10.6419V35.5H80.8702C80.857 26.5378 80.8427 17.5755 80.8284 8.6133H80.8296ZM85.8301 8.6133H80.8296V3.61279H85.8301V8.6133Z" fill="#2A323E"/>
<path d="M51.2743 20.1701V35.5H46.275V21.0668C46.275 16.963 43.8213 14.5093 39.8596 14.5571C36.1331 14.5571 33.3976 17.2926 33.3499 20.3588V35.5H28.3494V10.6419H33.0669V13.8025C34.7648 11.6329 37.5958 10.076 41.2745 10.076C47.5013 10.076 51.2743 14.0854 51.2743 20.1713V20.1701Z" fill="#2A323E"/>
<path d="M119.475 30.4995H114.474V35.5H119.475V30.4995Z" fill="#6099F7"/>
</g>
<defs>
<clipPath id="clip0_242_4653">
<rect width="119.475" height="35" fill="white" transform="translate(0 0.5)"/>
</clipPath>
</defs>
</svg>
