<svg width="88" height="103" viewBox="0 0 88 103" fill="none" xmlns="http://www.w3.org/2000/svg">
<path d="M87.5248 0H0.20752V20.747H87.5248V0Z" fill="#FFFFF8"/>
<path d="M66.6108 0.000549316V102.596H87.5257V0.000549316H66.6108Z" fill="#FFFFF8"/>
<path d="M77.1829 25.3962C61.6979 36.1038 46.2129 46.8114 30.7261 57.5208C25.3224 61.3499 23.0715 67.757 24.9613 72.9948C26.6995 77.8149 31.293 79.8306 32.251 80.2259H52.597C52.6531 87.7949 52.7093 95.3621 52.7673 102.931H25.6386C21.7412 101.752 15.9427 99.3619 10.5484 94.3542C7.54162 91.5627 1.77872 86.2117 0.375419 77.5347C-0.704188 70.8584 1.34276 65.5854 2.57954 62.3985C6.16451 53.161 12.7133 47.6485 16.3132 45.076C32.1387 33.5833 47.9624 22.0906 63.7879 10.5979C68.2522 15.5313 72.7166 20.4647 77.1829 25.3981V25.3962Z" fill="#FFFFF8"/>
</svg>
