<svg width="600" height="612" viewBox="0 0 600 612" fill="none" xmlns="http://www.w3.org/2000/svg">
<path d="M300 440.491C134.314 440.491 0 466.208 0 497.931C0 512.922 29.9951 526.571 79.1163 536.8C79.4316 533.887 80.8983 510.395 87.3212 510.644C94.907 510.938 99.0357 538.082 100.126 540.767C100.266 540.79 100.404 540.814 100.543 540.838C101.287 536.686 105.506 497.126 114.213 497.439C123.867 497.787 122.488 543.975 122.488 543.975C122.299 544.04 122.108 544.1 121.917 544.161C171.724 551.206 233.32 555.373 300 555.373C465.685 555.373 600 529.655 600 497.931C600 466.208 465.685 440.491 300 440.491Z" fill="#F4F4F4"/>
<path opacity="0.15" d="M429.074 476.918C429.074 469.982 369.654 464.357 296.355 464.357C229.956 464.357 174.947 468.973 165.178 474.998C156.099 472.494 138.19 470.79 117.577 470.79C87.7893 470.79 63.6406 474.349 63.6406 478.736C63.6406 483.127 87.7893 486.684 117.577 486.684C142.722 486.684 163.847 484.15 169.822 480.719C186.837 485.799 237.05 489.481 296.355 489.481C307.604 489.481 318.523 489.348 328.953 489.099L340.111 509.113L342.214 507.94L336.416 497.54L371.786 492.018L378.633 504.298L380.736 503.125L371.885 487.249C406.44 484.981 429.074 481.2 429.074 476.918ZM335.167 495.298L331.672 489.03C345.174 488.678 357.811 488.13 369.223 487.418L370.537 489.775L335.167 495.298Z" fill="#2A323E"/>
<path opacity="0.15" d="M252.289 533.836C252.289 538.557 228.14 542.382 198.352 542.382C168.565 542.382 144.416 538.557 144.416 533.836C144.416 529.118 168.565 525.292 198.352 525.292C228.14 525.292 252.289 529.119 252.289 533.836Z" fill="#2A323E"/>
<path opacity="0.15" d="M299.974 533.836C299.974 538.557 275.826 542.382 246.038 542.382C216.25 542.382 192.102 538.557 192.102 533.836C192.102 529.118 216.25 525.292 246.038 525.292C275.826 525.292 299.974 529.119 299.974 533.836Z" fill="#2A323E"/>
<path d="M230.802 248.601C220.181 266.897 196.739 273.119 178.444 262.497C160.147 251.876 153.926 228.435 164.547 210.139C175.168 191.843 198.609 185.621 216.906 196.242C235.202 206.863 241.424 230.306 230.802 248.601Z" fill="#F9C054"/>
<path d="M180.664 258.667C164.51 249.289 158.997 228.517 168.375 212.363C177.752 196.209 198.525 190.696 214.679 200.074C230.833 209.451 236.346 230.223 226.968 246.378C217.59 262.532 196.818 268.045 180.664 258.667ZM212.847 203.229C198.432 194.86 179.898 199.78 171.529 214.194C163.161 228.608 168.081 247.143 182.495 255.512C196.91 263.88 215.445 258.961 223.813 244.546C232.181 230.131 227.262 211.597 212.847 203.229Z" fill="#2A323E"/>
<path d="M187.177 243.279L189.397 239.454C186.96 237.934 184.888 235.783 184.018 234.012L187.233 230.924C188.245 232.724 189.972 234.833 192.377 236.229C194.861 237.671 197.264 237.432 198.363 235.541C199.393 233.766 198.677 231.823 196.378 229.064C193.108 225.163 191.526 221.715 193.654 218.048C195.622 214.658 199.498 213.43 203.891 215.031L206.134 211.168L209.367 213.045L207.239 216.712C209.676 218.232 211.028 219.807 211.923 221.171L208.753 224.179C208.059 223.196 206.851 221.283 204.17 219.726C201.41 218.125 199.601 218.971 198.823 220.312C197.885 221.929 198.778 223.659 201.35 226.945C204.805 231.164 205.539 234.437 203.503 237.945C201.557 241.296 197.515 242.902 192.767 241.095L190.41 245.155L187.177 243.279Z" fill="#2A323E"/>
<path opacity="0.15" d="M172.615 199.486C171.597 200.594 170.549 201.804 169.492 203.12C168.456 204.41 167.517 205.669 166.667 206.881C166.667 206.881 167.648 211.663 175.619 210.191L160.168 235.821C160.168 235.821 160.658 242.321 162.498 243.915C162.498 243.915 170.469 252.376 188.618 240.113C188.618 240.113 189.599 248.697 202.353 243.669C199.365 248.073 198.745 251.682 198.729 254.16C198.729 254.16 198.711 256.908 202.353 267.46C202.353 267.46 207.257 267.092 209.22 265.498L213.144 234.718L202.23 228.586C192.705 219.062 183.181 209.537 173.657 200.013C173.31 199.837 172.962 199.661 172.615 199.486Z" fill="#2A323E"/>
<path d="M257.812 57.5432C247.191 75.8388 223.749 82.0601 205.454 71.4391C187.157 60.818 180.936 37.3766 191.557 19.0807C202.178 0.78428 225.619 -5.43752 243.916 5.18398C262.212 15.8051 268.434 39.2473 257.812 57.5432Z" fill="#F9C054"/>
<path d="M207.68 67.6082C191.525 58.2305 186.013 37.4584 195.39 21.3041C204.767 5.15028 225.54 -0.362453 241.694 9.0152C257.849 18.3924 263.361 39.1646 253.984 55.3188C244.606 71.4731 223.834 76.9867 207.68 67.6082ZM239.863 12.1702C225.448 3.80203 206.913 8.7216 198.545 23.1356C190.177 37.5504 195.097 56.0854 209.511 64.4532C223.926 72.8218 242.461 67.9022 250.829 53.4874C259.197 39.0734 254.278 20.5388 239.863 12.1702Z" fill="#2A323E"/>
<path d="M214.189 52.2201L216.409 48.3956C213.971 46.8757 211.9 44.7246 211.029 42.9541L214.245 39.8664C215.256 41.6655 216.983 43.7748 219.388 45.1712C221.872 46.6127 224.276 46.3741 225.375 44.4834C226.405 42.7086 225.689 40.7651 223.39 38.0068C220.119 34.1057 218.538 30.6566 220.666 26.9907C222.634 23.6005 226.51 22.372 230.903 23.9738L233.145 20.1105L236.378 21.9868L234.25 25.6535C236.688 27.1735 238.039 28.7489 238.935 30.1129L235.765 33.1213C235.071 32.1387 233.862 30.225 231.181 28.6679C228.422 27.067 226.613 27.9132 225.834 29.2543C224.897 30.8705 225.789 32.601 228.362 35.8868C231.816 40.1059 232.551 43.3789 230.515 46.8867C228.569 50.2378 224.527 51.8442 219.779 50.0366L217.422 54.0971L214.189 52.2201Z" fill="#2A323E"/>
<path opacity="0.15" d="M205.215 47.6581C205.215 47.6581 193.989 45.8778 188.451 50.4522L192.135 57.5838C192.135 57.5838 230.135 69.0243 246.065 64.5658C268.543 58.2749 262.769 36.6689 262.769 36.6689C262.769 36.6689 254.001 38.3094 251.593 45.0507C251.593 45.0507 225.593 9.74013 206.332 29.9639C206.332 29.9639 200.355 37.8318 205.215 47.6581Z" fill="#2A323E"/>
<path d="M370.645 307.743H326.379C336.592 271.836 372.191 273.381 372.191 273.381L373.183 276.02L373.246 276.194L374.502 279.545L374.584 279.762L375.908 283.287C370.332 284.216 370.645 307.743 370.645 307.743Z" fill="#85CAED"/>
<path d="M373.244 276.193C367.572 276.877 358.351 279.111 350.083 286.464C342.504 293.201 338.999 301.324 337.376 307.743H331.4C332.7 303.288 334.964 298.059 338.936 293.023C349.592 279.511 365.3 276.608 373.182 276.02L373.244 276.193Z" fill="#DFF6FF"/>
<path d="M374.585 279.761C370.29 281.201 364.473 284.023 359.432 289.58C353.904 295.666 351.631 302.47 350.736 307.743H345.877C346.546 304.714 347.683 301.348 349.594 297.939C356.172 286.19 367.671 281.423 374.503 279.545L374.585 279.761Z" fill="#DFF6FF"/>
<path d="M322.492 253.972C315.922 267.979 295.665 255.682 295.665 255.682C295.253 255.115 294.884 254.545 294.55 253.972H260.992C262.782 263.213 269.027 268.789 275.471 272.137C283.699 276.41 283.97 276.145 285.408 278.761C294.811 295.858 283.549 306.029 284.553 317.227C287.456 349.592 309.342 313.808 309.342 313.808C309.342 313.808 302.504 298.421 301.649 292.438C300.795 286.454 300.794 271.923 312.762 270.213C319.096 269.309 325.191 261.697 329.651 253.972H322.492Z" fill="#794A37"/>
<path d="M299.651 259.101C299.651 259.101 285.404 284.745 264.889 269.358C264.889 269.358 258.905 282.181 244.374 277.052C229.842 271.923 233.261 259.101 233.261 259.101C233.261 259.101 215.311 278.762 205.053 262.52C194.795 246.279 207.617 238.586 207.617 238.586C207.617 238.586 189.667 242.86 189.667 234.312C189.667 234.312 168.297 253.972 159.749 232.602C151.201 211.232 174.28 206.958 174.28 206.958C174.28 206.958 164.877 202.684 168.297 189.862C168.297 189.862 131.54 194.136 135.815 156.525C140.088 118.914 164.023 130.881 164.023 130.881C164.023 130.881 164.877 111.221 191.376 111.221C191.376 111.221 177.699 96.6889 189.667 86.4317C189.667 86.4317 175.99 85.5769 179.409 68.4809C182.828 51.3849 207.617 49.6753 213.601 53.9493C213.601 53.9493 203.343 32.5793 217.02 26.5957C230.697 20.6121 255.487 53.0945 255.487 53.0945C255.487 53.0945 254.631 41.1273 264.889 38.5625C275.147 35.9981 278.566 49.6749 278.566 49.6749C278.566 49.6749 264.889 12.0637 293.098 3.51571C321.306 -5.03229 317.887 24.0305 317.887 24.0305C317.887 24.0305 323.87 14.6281 333.273 17.1925C342.676 19.7565 340.967 46.2557 340.967 46.2557C340.967 46.2557 353.789 35.9981 362.337 45.4009C362.337 45.4009 365.756 25.7405 381.997 31.7241C398.238 37.7077 386.271 63.3517 386.271 63.3517C386.271 63.3517 399.093 49.6749 404.222 61.6421C404.222 61.6421 420.463 47.9653 426.447 61.6421C432.431 75.3189 409.351 88.9957 409.351 88.9957C409.351 88.9957 417.899 86.4313 420.463 90.7053C423.028 94.9793 416.189 106.946 416.189 106.946C416.189 106.946 442.688 101.817 442.688 112.075C442.688 122.333 416.189 132.59 416.189 132.59C416.189 132.59 434.995 135.155 434.995 143.703C434.995 143.703 458.075 134.3 456.365 151.396C454.655 168.492 421.319 167.637 421.319 167.637C421.319 167.637 447.817 177.894 441.833 189.007C435.849 200.12 411.06 194.991 411.06 194.991C411.06 194.991 440.978 209.522 428.156 220.635C428.156 220.635 430.721 253.972 409.351 237.731C409.351 237.731 387.981 250.553 390.545 230.037C390.545 230.037 380.288 249.698 374.303 244.569C374.303 244.569 387.126 263.375 370.885 270.213C354.643 277.052 338.402 254.827 338.402 254.827C338.402 254.827 319.311 292.438 299.651 259.101Z" fill="#7FCFAC"/>
<path d="M350.975 478.112C321.409 478.112 262.276 478.112 232.71 478.112C207.882 478.112 202.015 454.581 202.015 454.581L168.902 326.672H412.969L379.212 457.073C379.212 457.073 374.17 478.112 350.975 478.112Z" fill="#E6E6E6"/>
<path d="M174.254 347.343H407.618L412.969 326.672H168.902L174.254 347.343Z" fill="#C8C8C8"/>
<path d="M420.798 328.231C420.798 331.208 418.604 333.622 415.897 333.622H165.975C163.268 333.622 161.074 331.208 161.074 328.231V312.06C161.074 309.083 163.268 306.669 165.975 306.669H415.897C418.604 306.669 420.798 309.083 420.798 312.06L420.798 328.231Z" fill="#E6E6E6"/>
<path d="M234.428 205.363L240.968 197.927L229.984 193.06C224.951 185.698 216.297 176.233 205.62 166.844C194.942 157.455 184.449 150.084 176.503 146.033L170.271 135.762L163.73 143.2C163.585 143.305 163.454 143.425 163.337 143.557C159.532 147.884 172.294 165.326 191.84 182.515C211.388 199.703 230.319 210.129 234.124 205.801C234.241 205.669 234.343 205.522 234.428 205.363Z" fill="#F9C054"/>
<path d="M240.538 198.506C236.734 202.834 217.802 192.408 198.255 175.219C178.708 158.031 165.946 140.589 169.751 136.261C173.556 131.934 192.487 142.361 212.035 159.549C231.582 176.737 244.344 194.179 240.538 198.506Z" fill="#F9C054"/>
<path d="M210.904 160.834C193.819 145.81 177.495 136.443 174.445 139.912C171.396 143.38 182.773 158.37 199.859 173.394C216.944 188.417 233.267 197.785 236.317 194.316C239.368 190.848 227.99 175.857 210.904 160.834ZM201.291 171.765C186.295 158.578 176.181 145.564 178.703 142.697C181.225 139.829 195.425 148.195 210.422 161.382C225.419 174.569 235.532 187.582 233.009 190.45C230.488 193.318 216.289 184.952 201.291 171.765Z" fill="#2A323E"/>
<path d="M193.889 156.723L194.539 155.92L197.479 158.291C198.158 157.551 199.118 157.26 200.366 157.422L202.227 159.445C200.896 159.29 199.963 159.543 199.427 160.205C199.082 160.636 199.061 161.199 199.367 161.893C199.671 162.589 200.229 163.263 201.043 163.92C201.78 164.513 202.498 164.916 203.2 165.127C203.904 165.34 204.689 165.379 205.556 165.248C206.893 165.053 208.09 165.122 209.147 165.459C210.202 165.795 211.293 166.416 212.42 167.326C213.625 168.298 214.533 169.306 215.138 170.351C215.743 171.396 215.922 172.314 215.673 173.105L218.615 175.477L217.964 176.28L215.112 173.98C214.572 174.548 213.781 174.809 212.736 174.759L210.925 172.793C212.048 172.847 212.836 172.591 213.289 172.028C213.62 171.616 213.642 171.109 213.355 170.505C213.065 169.9 212.566 169.312 211.861 168.743C211.177 168.19 210.508 167.83 209.855 167.663C209.206 167.497 208.363 167.483 207.328 167.622C206.082 167.787 204.92 167.682 203.845 167.309C202.769 166.936 201.612 166.248 200.365 165.244C199.141 164.256 198.197 163.204 197.532 162.093C196.868 160.981 196.661 160.004 196.92 159.166L193.889 156.723Z" fill="#2A323E"/>
<path opacity="0.15" d="M201.094 201.282C201.094 201.282 204.742 184.408 222.984 191.249C222.984 191.249 233.929 167.99 238.946 187.144C243.962 206.298 250.803 214.051 232.561 212.227C214.319 210.402 201.55 210.859 201.094 201.282Z" fill="#2A323E"/>
<path d="M205.424 202.726C205.424 202.726 209.072 185.852 227.314 192.693C227.314 192.693 238.259 169.435 243.276 188.588C248.292 207.743 255.133 215.496 236.891 213.671C218.649 211.847 205.88 212.303 205.424 202.726Z" fill="#5AC194"/>
<path d="M375.363 165.691C393.035 177.319 397.935 201.074 386.308 218.746C374.679 236.42 350.926 241.32 333.253 229.692C315.58 218.063 310.679 194.311 322.308 176.637C333.936 158.964 357.689 154.064 375.363 165.691Z" fill="#F9C054"/>
<path d="M382.608 216.312C372.341 231.916 351.293 236.258 335.689 225.991C320.085 215.724 315.743 194.676 326.01 179.072C336.276 163.468 357.324 159.125 372.928 169.392C388.532 179.659 392.875 200.707 382.608 216.312ZM329.057 181.077C319.896 195.002 323.771 213.782 337.694 222.944C351.617 232.105 370.399 228.231 379.561 214.306C388.722 200.382 384.847 181.601 370.923 172.44C357 163.279 338.219 167.153 329.057 181.077Z" fill="#2A323E"/>
<path d="M367.604 208.951L363.91 206.521C362.256 208.87 359.992 210.818 358.176 211.588L355.273 208.204C357.127 207.295 359.329 205.689 360.857 203.366C362.435 200.967 362.332 198.553 360.505 197.35C358.791 196.223 356.81 196.829 353.928 198.971C349.85 202.017 346.318 203.404 342.777 201.073C339.502 198.919 338.492 194.98 340.337 190.683L336.605 188.228L338.661 185.105L342.201 187.435C343.855 185.087 345.504 183.825 346.916 183.007L349.742 186.341C348.722 186.979 346.744 188.078 345.04 190.668C343.287 193.333 344.031 195.187 345.326 196.039C346.887 197.066 348.664 196.272 352.09 193.887C356.495 190.674 359.804 190.123 363.192 192.353C366.429 194.483 367.807 198.608 365.736 203.248L369.659 205.829L367.604 208.951Z" fill="#2A323E"/>
<path opacity="0.15" d="M320.396 218.965C320.396 218.965 325.869 203.916 340.463 210.301C355.057 216.685 355.512 232.647 355.512 232.647C355.512 232.647 357.338 219.422 375.579 219.877C393.821 220.333 375.579 231.735 375.579 231.735L363.266 235.383L357.337 241.768C357.337 241.768 321.308 240.4 320.396 218.965Z" fill="#2A323E"/>
<path d="M319.434 222.336C319.434 222.336 324.906 207.287 339.5 213.671C354.094 220.055 354.549 236.017 354.549 236.017C354.549 236.017 356.375 222.792 374.616 223.248C392.858 223.704 374.616 235.105 374.616 235.105L362.303 238.754L356.374 245.138C356.374 245.138 320.345 243.771 319.434 222.336Z" fill="#5AC194"/>
<path d="M434.938 61.5186L427.185 54.9675L424.04 66.434C415.228 69.7087 404.666 76.5692 394.919 85.9196C385.172 95.2687 378.258 105.175 375.221 113.264L362.652 116.873L370.406 123.426C370.61 123.643 370.825 123.848 371.058 124.041C378.603 130.334 399.186 121.563 417.028 104.446C434.871 87.3288 443.22 68.3507 435.672 62.0573C435.44 61.8634 435.195 61.6823 434.938 61.5186Z" fill="#F9C054"/>
<path d="M428.17 55.7128C435.716 62.0074 427.369 80.9856 409.526 98.1025C391.682 115.218 371.101 123.992 363.555 117.699C356.009 111.403 364.356 92.4253 382.199 75.308C400.043 58.1924 420.622 49.4194 428.17 55.7128Z" fill="#F9C054"/>
<path d="M384.438 77.1786C368.841 92.1385 361.104 108.356 367.151 113.402C373.198 118.445 390.745 110.409 406.34 95.4469C421.937 80.4866 429.676 64.2676 423.628 59.2236C417.58 54.1779 400.032 62.2171 384.438 77.1786ZM403.5 93.0772C389.811 106.211 374.66 113.474 369.66 109.304C364.66 105.133 371.704 91.1068 385.394 77.9751C399.083 64.8433 414.232 57.5796 419.233 61.7501C424.232 65.9205 417.189 79.9454 403.5 93.0772Z" fill="#2A323E"/>
<path d="M384.492 96.2663L383.111 95.1677L385.487 92.5092C384.188 91.4004 383.434 90.1203 383.228 88.6673L385.483 87.1874C385.727 88.7431 386.416 89.975 387.554 90.8801C388.293 91.4682 389.109 91.7102 390.001 91.6066C390.893 91.5052 391.665 91.0889 392.324 90.3526C392.916 89.6865 393.244 88.969 393.301 88.1955C393.361 87.423 393.143 86.4838 392.651 85.3819C391.904 83.6804 391.585 82.2529 391.698 81.0989C391.811 79.948 392.321 78.8614 393.233 77.8425C394.207 76.7529 395.337 76.04 396.627 75.7081C397.915 75.377 399.171 75.5137 400.395 76.1218L402.77 73.4628L404.152 74.5635L401.846 77.142C402.85 78.0164 403.504 79.08 403.796 80.3281L401.609 81.7709C401.293 80.4282 400.648 79.371 399.681 78.6019C398.975 78.0432 398.24 77.8191 397.471 77.9358C396.705 78.0526 396.034 78.4331 395.463 79.0702C394.91 79.6876 394.625 80.363 394.615 81.0908C394.604 81.8152 394.878 82.8341 395.44 84.1453C396.113 85.7245 396.37 87.0962 396.21 88.2565C396.051 89.4202 395.468 90.5614 394.461 91.6876C393.471 92.7942 392.291 93.5357 390.929 93.9145C389.565 94.2921 388.233 94.1659 386.94 93.5289L384.492 96.2663Z" fill="#2A323E"/>
<path opacity="0.15" d="M359.288 87.7259C359.288 87.7259 386.195 80.8845 379.354 98.2149C379.354 98.2149 387.562 100.951 386.65 106.424C386.65 106.424 408.997 91.8299 407.629 118.737C407.629 118.737 397.595 141.995 377.985 131.506C358.375 121.017 352.903 96.847 359.288 87.7259Z" fill="#2A323E"/>
<path d="M354.954 89.1704C354.954 89.1704 381.86 82.3291 375.019 99.6594C375.019 99.6594 383.228 102.396 382.317 107.868C382.317 107.868 404.663 93.2744 403.295 120.181C403.295 120.181 393.261 143.44 373.651 132.951C354.041 122.462 348.569 98.2916 354.954 89.1704Z" fill="#5AC194"/>
<path d="M301.571 140.072C282.012 148.135 259.62 138.814 251.558 119.256C243.494 99.6969 252.814 77.3059 272.373 69.2433C291.932 61.181 314.323 70.4999 322.387 90.0589C330.448 109.618 321.129 132.01 301.571 140.072Z" fill="#F9C054"/>
<path d="M255.651 117.568C248.532 100.299 256.79 80.458 274.059 73.3392C291.328 66.2208 311.17 74.4791 318.288 91.7481C325.407 109.017 317.149 128.858 299.879 135.976C282.611 143.096 262.77 134.838 255.651 117.568ZM314.915 93.1381C308.563 77.7286 290.859 70.3602 275.45 76.7119C260.041 83.0641 252.672 100.768 259.024 116.178C265.376 131.587 283.081 138.956 298.49 132.604C313.9 126.252 321.268 108.548 314.915 93.1381Z" fill="#2A323E"/>
<path d="M270.18 109.313L274.268 107.627C273.258 104.938 272.922 101.971 273.308 100.036L277.739 99.5413C277.447 101.585 277.535 104.31 278.595 106.88C279.689 109.535 281.743 110.809 283.764 109.975C285.662 109.193 286.276 107.214 286.128 103.627C285.905 98.5416 286.747 94.8416 290.666 93.2257C294.29 91.7322 298.114 93.1137 300.627 97.0583L304.757 95.3555L306.181 98.8109L302.262 100.427C303.274 103.116 303.388 105.189 303.269 106.816L298.923 107.276C298.969 106.074 299.174 103.82 297.993 100.954C296.777 98.0043 294.825 97.5756 293.393 98.1671C291.665 98.8791 291.321 100.795 291.365 104.968C291.541 110.418 290.133 113.463 286.383 115.009C282.801 116.486 278.615 115.303 275.946 110.98L271.605 112.769L270.18 109.313Z" fill="#2A323E"/>
<path opacity="0.15" d="M246.619 125.856C246.619 125.856 251.635 98.9486 264.861 98.9486C278.087 98.9486 284.015 114.91 284.015 114.91C284.015 114.91 288.12 106.701 295.872 113.542C295.872 113.542 298.152 93.9315 308.642 105.789C308.642 105.789 310.922 69.7618 330.076 91.1957C349.23 112.63 328.252 145.009 294.504 145.009C260.756 145.009 246.619 125.856 246.619 125.856Z" fill="#2A323E"/>
<path d="M246.619 130.671C246.619 130.671 251.635 103.764 264.861 103.764C278.087 103.764 284.015 119.725 284.015 119.725C284.015 119.725 288.12 111.517 295.872 118.357C295.872 118.357 298.152 98.7466 308.642 110.604C308.642 110.604 310.922 74.577 330.076 96.0109C349.23 117.444 328.252 149.824 294.504 149.824C260.756 149.824 246.619 130.671 246.619 130.671Z" fill="#5AC194"/>
<path d="M341.562 509.942C340.49 510.098 339.494 509.355 339.34 508.283L309.267 301.29C309.111 300.218 309.854 299.223 310.925 299.067C311.997 298.912 312.992 299.654 313.148 300.726L343.22 507.719C343.376 508.791 342.633 509.787 341.562 509.942Z" fill="#2A323E"/>
<path d="M380.373 504.304C379.301 504.459 378.306 503.717 378.15 502.645L348.077 295.651C347.921 294.58 348.665 293.585 349.736 293.429C350.808 293.273 351.803 294.016 351.959 295.087L382.031 502.081C382.187 503.153 381.443 504.148 380.373 504.304Z" fill="#2A323E"/>
<path d="M377.58 485.083L338.768 490.722C337.698 490.877 336.701 490.135 336.546 489.063C336.39 487.992 337.134 486.996 338.204 486.841L377.016 481.203C378.088 481.047 379.083 481.789 379.238 482.861C379.394 483.932 378.651 484.928 377.58 485.083Z" fill="#2A323E"/>
<path d="M373.552 457.361L334.741 463C333.67 463.155 332.674 462.413 332.519 461.34C332.363 460.271 333.106 459.273 334.177 459.119L372.989 453.48C374.06 453.324 375.055 454.067 375.211 455.139C375.367 456.21 374.624 457.205 373.552 457.361Z" fill="#2A323E"/>
<path d="M369.525 429.639L330.714 435.277C329.643 435.432 328.648 434.69 328.491 433.618C328.336 432.547 329.078 431.553 330.15 431.396L368.962 425.757C370.033 425.602 371.028 426.344 371.184 427.416C371.339 428.487 370.597 429.483 369.525 429.639Z" fill="#2A323E"/>
<path d="M365.496 401.917L326.684 407.555C325.613 407.71 324.618 406.967 324.462 405.896C324.306 404.824 325.05 403.83 326.121 403.674L364.933 398.035C366.003 397.88 366.999 398.622 367.154 399.694C367.31 400.764 366.567 401.76 365.496 401.917Z" fill="#2A323E"/>
<path d="M361.472 374.194L322.661 379.832C321.59 379.988 320.595 379.245 320.439 378.174C320.283 377.102 321.026 376.107 322.097 375.951L360.909 370.313C361.98 370.157 362.975 370.899 363.131 371.971C363.287 373.042 362.544 374.038 361.472 374.194Z" fill="#2A323E"/>
<path d="M357.445 346.471L318.633 352.11C317.563 352.266 316.567 351.523 316.411 350.451C316.256 349.379 316.998 348.384 318.07 348.229L356.881 342.59C357.953 342.434 358.947 343.178 359.103 344.249C359.259 345.321 358.516 346.316 357.445 346.471Z" fill="#2A323E"/>
<path d="M353.415 318.748L314.604 324.388C313.533 324.543 312.538 323.801 312.382 322.729C312.226 321.658 312.969 320.662 314.041 320.506L352.853 314.868C353.924 314.712 354.919 315.455 355.075 316.526C355.229 317.598 354.487 318.593 353.415 318.748Z" fill="#2A323E"/>
<path opacity="0.15" d="M553.308 487.22C553.308 491.611 529.16 495.168 499.372 495.168C469.584 495.168 445.436 491.611 445.436 487.22C445.436 482.833 469.584 479.274 499.372 479.274C529.16 479.274 553.308 482.833 553.308 487.22Z" fill="#2A323E"/>
<path opacity="0.15" d="M533.724 597.184C533.724 604.949 506.227 611.24 472.308 611.24C438.39 611.24 410.893 604.949 410.893 597.184C410.893 589.424 438.39 583.13 472.308 583.13C506.227 583.13 533.724 589.424 533.724 597.184Z" fill="#2A323E"/>
<path d="M541.579 482.812V473.671L530.999 476.992C523.023 474.957 511.256 473.671 498.132 473.671C485.008 473.671 473.241 474.957 465.264 476.992L454.685 473.671V482.814C454.648 482.976 454.629 483.137 454.629 483.301C454.629 488.62 474.106 492.931 498.132 492.931C522.158 492.931 541.635 488.62 541.635 483.301C541.635 483.137 541.616 482.974 541.579 482.812Z" fill="#F9C054"/>
<path d="M541.633 474.334C541.633 479.653 522.156 483.965 498.13 483.965C474.104 483.965 454.627 479.653 454.627 474.334C454.627 469.015 474.104 464.704 498.13 464.704C522.156 464.704 541.633 469.015 541.633 474.334Z" fill="#F9C054"/>
<path d="M498.131 466.284C477.131 466.284 460.107 469.74 460.107 474.002C460.107 478.266 477.13 481.722 498.131 481.722C519.13 481.722 536.154 478.265 536.154 474.002C536.154 469.74 519.13 466.284 498.131 466.284ZM498.131 479.72C479.698 479.72 464.756 476.863 464.756 473.338C464.756 469.814 479.698 466.957 498.131 466.957C516.563 466.957 531.505 469.814 531.505 473.338C531.505 476.863 516.563 479.72 498.131 479.72Z" fill="#2A323E"/>
<path d="M483.829 473.806L483.789 472.853L487.272 472.704C487.292 471.778 487.781 470.991 488.744 470.342L491.267 470.61C490.25 471.314 489.757 472.058 489.791 472.843C489.813 473.352 490.141 473.755 490.777 474.051C491.412 474.347 492.209 474.475 493.175 474.434C494.046 474.395 494.789 474.237 495.405 473.954C496.022 473.673 496.591 473.222 497.11 472.603C497.92 471.652 498.792 470.971 499.729 470.559C500.665 470.15 501.8 469.915 503.136 469.859C504.564 469.799 505.807 469.944 506.864 470.3C507.919 470.654 508.603 471.182 508.913 471.883L512.397 471.733L512.436 472.687L509.057 472.831C509.029 473.554 508.64 474.217 507.886 474.818L505.432 474.561C506.243 473.914 506.633 473.256 506.604 472.588C506.582 472.101 506.289 471.737 505.721 471.493C505.152 471.251 504.448 471.147 503.612 471.182C502.801 471.216 502.117 471.374 501.563 471.657C501.012 471.937 500.419 472.442 499.786 473.168C499.023 474.043 498.153 474.679 497.181 475.075C496.208 475.472 494.986 475.7 493.511 475.764C492.059 475.826 490.764 475.672 489.626 475.308C488.488 474.942 487.75 474.391 487.418 473.653L483.829 473.806Z" fill="#F9C054"/>
<path d="M541.579 469.529V460.388L530.999 463.708C523.023 461.673 511.256 460.387 498.132 460.387C485.008 460.387 473.241 461.673 465.264 463.708L454.685 460.388V469.531C454.648 469.693 454.629 469.854 454.629 470.018C454.629 475.336 474.106 479.648 498.132 479.648C522.158 479.648 541.635 475.336 541.635 470.018C541.635 469.854 541.616 469.691 541.579 469.529Z" fill="#F9C054"/>
<path d="M498.13 470.682C522.156 470.682 541.633 466.37 541.633 461.051C541.633 455.732 522.156 451.421 498.13 451.421C474.104 451.421 454.627 455.732 454.627 461.051C454.627 466.37 474.104 470.682 498.13 470.682Z" fill="#F9C054"/>
<path d="M498.131 453C477.131 453 460.107 456.456 460.107 460.719C460.107 464.983 477.13 468.439 498.131 468.439C519.13 468.439 536.154 464.983 536.154 460.719C536.154 456.456 519.13 453 498.131 453ZM498.131 466.437C479.698 466.437 464.756 463.58 464.756 460.056C464.756 456.531 479.698 453.674 498.131 453.674C516.563 453.674 531.505 456.531 531.505 460.056C531.505 463.58 516.563 466.437 498.131 466.437Z" fill="#2A323E"/>
<path d="M483.829 460.523L483.789 459.569L487.272 459.421C487.292 458.495 487.781 457.707 488.744 457.058L491.267 457.327C490.25 458.031 489.757 458.775 489.791 459.559C489.813 460.069 490.141 460.472 490.777 460.767C491.412 461.063 492.209 461.19 493.175 461.15C494.046 461.112 494.789 460.953 495.405 460.671C496.022 460.39 496.591 459.939 497.11 459.319C497.92 458.369 498.792 457.688 499.729 457.277C500.665 456.866 501.8 456.633 503.136 456.576C504.564 456.516 505.807 456.661 506.864 457.016C507.919 457.371 508.603 457.899 508.913 458.6L512.397 458.451L512.436 459.404L509.057 459.548C509.029 460.271 508.64 460.935 507.886 461.536L505.432 461.278C506.243 460.631 506.633 459.973 506.604 459.306C506.582 458.82 506.289 458.454 505.721 458.21C505.152 457.968 504.448 457.864 503.612 457.9C502.801 457.935 502.117 458.092 501.563 458.374C501.012 458.655 500.419 459.159 499.786 459.885C499.023 460.761 498.153 461.397 497.181 461.792C496.208 462.19 494.986 462.418 493.511 462.481C492.059 462.543 490.764 462.39 489.626 462.025C488.488 461.659 487.75 461.108 487.418 460.37L483.829 460.523Z" fill="#F9C054"/>
<path d="M534.936 456.246V447.104L524.356 450.425C516.379 448.39 504.613 447.104 491.489 447.104C478.365 447.104 466.598 448.39 458.621 450.425L448.041 447.104V456.247C448.005 456.408 447.986 456.57 447.986 456.734C447.986 462.053 467.463 466.364 491.489 466.364C515.515 466.364 534.992 462.053 534.992 456.734C534.991 456.571 534.973 456.408 534.936 456.246Z" fill="#F9C054"/>
<path d="M534.992 447.768C534.992 453.087 515.515 457.399 491.489 457.399C467.463 457.399 447.986 453.087 447.986 447.768C447.986 442.449 467.463 438.138 491.489 438.138C515.515 438.138 534.992 442.449 534.992 447.768Z" fill="#F9C054"/>
<path d="M491.491 439.717C470.49 439.717 453.467 443.173 453.467 447.436C453.467 451.699 470.49 455.155 491.491 455.155C512.491 455.155 529.514 451.699 529.514 447.436C529.514 443.173 512.491 439.717 491.491 439.717ZM491.491 453.153C473.058 453.153 458.116 450.296 458.116 446.772C458.116 443.247 473.058 440.39 491.491 440.39C509.924 440.39 524.865 443.247 524.865 446.772C524.865 450.296 509.924 453.153 491.491 453.153Z" fill="#2A323E"/>
<path d="M477.194 447.239L477.154 446.286L480.638 446.137C480.658 445.211 481.146 444.424 482.109 443.775L484.633 444.044C483.616 444.747 483.123 445.492 483.156 446.276C483.178 446.785 483.507 447.188 484.143 447.484C484.778 447.779 485.575 447.907 486.541 447.868C487.412 447.829 488.156 447.671 488.771 447.388C489.389 447.106 489.957 446.656 490.477 446.036C491.285 445.086 492.159 444.405 493.095 443.993C494.031 443.583 495.166 443.349 496.502 443.292C497.929 443.232 499.173 443.378 500.231 443.734C501.286 444.088 501.969 444.615 502.279 445.316L505.764 445.167L505.802 446.12L502.423 446.264C502.395 446.987 502.005 447.651 501.251 448.252L498.797 447.995C499.609 447.347 499.998 446.689 499.97 446.022C499.948 445.535 499.655 445.171 499.087 444.927C498.517 444.684 497.813 444.581 496.978 444.616C496.167 444.65 495.484 444.808 494.93 445.091C494.378 445.372 493.785 445.875 493.153 446.602C492.389 447.477 491.519 448.113 490.547 448.509C489.575 448.906 488.352 449.135 486.876 449.198C485.425 449.26 484.13 449.106 482.992 448.741C481.855 448.376 481.116 447.824 480.784 447.087L477.194 447.239Z" fill="#F9C054"/>
<path d="M541.579 442.962V433.821L530.999 437.142C523.023 435.107 511.256 433.821 498.132 433.821C485.008 433.821 473.241 435.107 465.264 437.142L454.685 433.821V442.964C454.648 443.126 454.629 443.288 454.629 443.451C454.629 448.77 474.106 453.082 498.132 453.082C522.158 453.082 541.635 448.77 541.635 443.451C541.635 443.286 541.616 443.125 541.579 442.962Z" fill="#F9C054"/>
<path d="M541.633 434.485C541.633 439.804 522.156 444.115 498.13 444.115C474.104 444.115 454.627 439.804 454.627 434.485C454.627 429.166 474.104 424.854 498.13 424.854C522.156 424.854 541.633 429.166 541.633 434.485Z" fill="#F9C054"/>
<path d="M498.131 426.433C477.131 426.433 460.107 429.889 460.107 434.152C460.107 438.415 477.13 441.872 498.131 441.872C519.13 441.872 536.154 438.415 536.154 434.152C536.154 429.889 519.13 426.433 498.131 426.433ZM498.131 439.869C479.698 439.869 464.756 437.013 464.756 433.488C464.756 429.964 479.698 427.107 498.131 427.107C516.563 427.107 531.505 429.964 531.505 433.488C531.505 437.013 516.563 439.869 498.131 439.869Z" fill="#2A323E"/>
<path d="M483.829 433.956L483.789 433.003L487.272 432.854C487.292 431.928 487.781 431.141 488.744 430.492L491.267 430.76C490.25 431.464 489.757 432.208 489.791 432.993C489.813 433.503 490.141 433.905 490.777 434.201C491.412 434.497 492.209 434.624 493.175 434.583C494.046 434.545 494.789 434.387 495.405 434.105C496.022 433.824 496.591 433.373 497.11 432.753C497.92 431.803 498.792 431.121 499.729 430.71C500.665 430.3 501.8 430.066 503.136 430.01C504.564 429.949 505.807 430.095 506.864 430.45C507.919 430.805 508.603 431.333 508.913 432.034L512.397 431.885L512.436 432.837L509.057 432.982C509.029 433.705 508.64 434.368 507.886 434.969L505.432 434.712C506.243 434.065 506.633 433.407 506.604 432.739C506.582 432.253 506.289 431.889 505.721 431.644C505.152 431.402 504.448 431.298 503.612 431.334C502.801 431.368 502.117 431.526 501.563 431.808C501.012 432.089 500.419 432.593 499.786 433.319C499.023 434.195 498.153 434.83 497.181 435.225C496.208 435.623 494.986 435.852 493.511 435.915C492.059 435.976 490.764 435.823 489.626 435.459C488.488 435.093 487.75 434.542 487.418 433.803L483.829 433.956Z" fill="#F9C054"/>
<path d="M544.898 429.679V420.538L534.318 423.859C526.342 421.824 514.575 420.537 501.45 420.537C488.326 420.537 476.559 421.824 468.583 423.859L458.003 420.538V429.681C457.966 429.843 457.947 430.005 457.947 430.168C457.947 435.487 477.424 439.799 501.45 439.799C525.476 439.799 544.954 435.487 544.954 430.168C544.954 430.004 544.935 429.841 544.898 429.679Z" fill="#F9C054"/>
<path d="M544.954 421.201C544.954 426.52 525.476 430.832 501.45 430.832C477.424 430.832 457.947 426.52 457.947 421.201C457.947 415.883 477.424 411.571 501.45 411.571C525.476 411.571 544.954 415.883 544.954 421.201Z" fill="#F9C054"/>
<path d="M501.451 413.15C480.451 413.15 463.428 416.606 463.428 420.869C463.428 425.133 480.451 428.589 501.451 428.589C522.451 428.589 539.475 425.133 539.475 420.869C539.475 416.606 522.451 413.15 501.451 413.15ZM501.451 426.587C483.019 426.587 468.076 423.73 468.076 420.206C468.076 416.681 483.019 413.824 501.451 413.824C519.884 413.824 534.826 416.681 534.826 420.206C534.826 423.73 519.884 426.587 501.451 426.587Z" fill="#2A323E"/>
<path d="M487.153 420.672L487.113 419.719L490.596 419.571C490.616 418.644 491.105 417.857 492.068 417.209L494.591 417.477C493.574 418.181 493.082 418.925 493.115 419.709C493.137 420.219 493.466 420.622 494.101 420.917C494.737 421.213 495.533 421.34 496.499 421.301C497.37 421.263 498.114 421.104 498.729 420.821C499.347 420.54 499.916 420.089 500.435 419.47C501.244 418.52 502.117 417.838 503.053 417.427C503.989 417.016 505.124 416.783 506.46 416.726C507.888 416.666 509.131 416.812 510.189 417.167C511.244 417.522 511.927 418.049 512.237 418.749L515.722 418.601L515.761 419.553L512.382 419.697C512.353 420.42 511.964 421.084 511.21 421.686L508.756 421.428C509.567 420.78 509.958 420.122 509.929 419.456C509.907 418.969 509.613 418.603 509.045 418.36C508.477 418.117 507.773 418.014 506.936 418.049C506.126 418.084 505.442 418.242 504.888 418.523C504.337 418.805 503.744 419.309 503.111 420.035C502.348 420.909 501.478 421.546 500.506 421.942C499.533 422.339 498.311 422.568 496.835 422.631C495.384 422.693 494.089 422.539 492.951 422.174C491.813 421.808 491.075 421.256 490.743 420.519L487.153 420.672Z" fill="#F9C054"/>
<path d="M541.579 416.395V407.254L530.999 410.576C523.023 408.541 511.256 407.254 498.132 407.254C485.008 407.254 473.241 408.541 465.264 410.576L454.685 407.254V416.397C454.648 416.559 454.629 416.721 454.629 416.884C454.629 422.204 474.106 426.515 498.132 426.515C522.158 426.515 541.635 422.204 541.635 416.884C541.635 416.72 541.616 416.558 541.579 416.395Z" fill="#F9C054"/>
<path d="M541.633 407.918C541.633 413.237 522.156 417.548 498.13 417.548C474.104 417.548 454.627 413.237 454.627 407.918C454.627 402.599 474.104 398.288 498.13 398.288C522.156 398.288 541.633 402.599 541.633 407.918Z" fill="#F9C054"/>
<path d="M498.131 399.867C477.131 399.867 460.107 403.323 460.107 407.586C460.107 411.849 477.13 415.305 498.131 415.305C519.13 415.305 536.154 411.849 536.154 407.586C536.154 403.323 519.13 399.867 498.131 399.867ZM498.131 413.303C479.698 413.303 464.756 410.446 464.756 406.922C464.756 403.398 479.698 400.54 498.131 400.54C516.563 400.54 531.505 403.398 531.505 406.922C531.505 410.446 516.563 413.303 498.131 413.303Z" fill="#2A323E"/>
<path d="M483.829 407.389L483.789 406.436L487.272 406.287C487.292 405.361 487.781 404.574 488.744 403.925L491.267 404.193C490.25 404.897 489.757 405.642 489.791 406.427C489.813 406.936 490.141 407.338 490.777 407.634C491.412 407.93 492.209 408.058 493.175 408.017C494.046 407.979 494.789 407.82 495.405 407.538C496.022 407.257 496.591 406.806 497.11 406.186C497.92 405.236 498.792 404.555 499.729 404.144C500.665 403.734 501.8 403.499 503.136 403.443C504.564 403.383 505.807 403.528 506.864 403.884C507.919 404.238 508.603 404.766 508.913 405.467L512.397 405.318L512.436 406.27L509.057 406.415C509.029 407.138 508.64 407.801 507.886 408.402L505.432 408.144C506.243 407.498 506.633 406.84 506.604 406.172C506.582 405.685 506.289 405.321 505.721 405.076C505.152 404.835 504.448 404.731 503.612 404.766C502.801 404.801 502.117 404.958 501.563 405.24C501.012 405.521 500.419 406.025 499.786 406.752C499.023 407.627 498.153 408.262 497.181 408.658C496.208 409.055 494.986 409.284 493.511 409.348C492.059 409.409 490.764 409.256 489.626 408.891C488.488 408.525 487.75 407.974 487.418 407.236L483.829 407.389Z" fill="#F9C054"/>
<path d="M529.455 404.275V395.133L518.875 398.454C510.9 396.42 499.133 395.133 486.009 395.133C472.885 395.133 461.117 396.42 453.141 398.454L442.561 395.133V404.277C442.525 404.438 442.506 404.6 442.506 404.763C442.506 410.083 461.983 414.394 486.009 414.394C510.035 414.394 529.512 410.083 529.512 404.763C529.512 404.6 529.493 404.437 529.455 404.275Z" fill="#F9C054"/>
<path d="M529.512 395.798C529.512 401.116 510.035 405.428 486.009 405.428C461.983 405.428 442.506 401.116 442.506 395.798C442.506 390.478 461.983 386.168 486.009 386.168C510.035 386.168 529.512 390.478 529.512 395.798Z" fill="#F9C054"/>
<path d="M486.01 387.747C465.01 387.747 447.986 391.203 447.986 395.466C447.986 399.729 465.01 403.185 486.01 403.185C507.009 403.185 524.033 399.729 524.033 395.466C524.033 391.203 507.009 387.747 486.01 387.747ZM486.01 401.183C467.577 401.183 452.635 398.326 452.635 394.801C452.635 391.277 467.577 388.42 486.01 388.42C504.442 388.42 519.384 391.277 519.384 394.801C519.384 398.326 504.442 401.183 486.01 401.183Z" fill="#2A323E"/>
<path d="M471.71 395.268L471.67 394.315L475.153 394.166C475.173 393.24 475.661 392.453 476.625 391.805L479.148 392.073C478.13 392.776 477.638 393.521 477.671 394.306C477.693 394.815 478.022 395.218 478.658 395.513C479.292 395.809 480.089 395.937 481.055 395.896C481.927 395.858 482.671 395.699 483.286 395.417C483.903 395.136 484.471 394.685 484.991 394.066C485.8 393.115 486.673 392.434 487.61 392.023C488.546 391.613 489.681 391.379 491.017 391.322C492.444 391.262 493.688 391.407 494.745 391.763C495.8 392.117 496.483 392.645 496.793 393.346L500.278 393.197L500.317 394.149L496.938 394.294C496.91 395.017 496.521 395.68 495.767 396.281L493.312 396.023C494.124 395.377 494.513 394.719 494.485 394.051C494.463 393.565 494.17 393.2 493.602 392.956C493.033 392.714 492.329 392.61 491.493 392.645C490.682 392.68 489.998 392.837 489.444 393.119C488.893 393.4 488.3 393.904 487.667 394.631C486.904 395.506 486.034 396.141 485.063 396.538C484.09 396.935 482.868 397.163 481.392 397.227C479.94 397.288 478.646 397.135 477.507 396.77C476.37 396.404 475.632 395.853 475.3 395.115L471.71 395.268Z" fill="#F9C054"/>
<path d="M541.579 392.154V383.014L530.999 386.335C523.023 384.3 511.256 383.014 498.132 383.014C485.008 383.014 473.241 384.3 465.264 386.335L454.685 383.014V392.156C454.648 392.318 454.629 392.48 454.629 392.643C454.629 397.963 474.106 402.273 498.132 402.273C522.158 402.273 541.635 397.963 541.635 392.643C541.635 392.479 541.616 392.317 541.579 392.154Z" fill="#F9C054"/>
<path d="M541.633 383.677C541.633 388.996 522.156 393.307 498.13 393.307C474.104 393.307 454.627 388.996 454.627 383.677C454.627 378.358 474.104 374.047 498.13 374.047C522.156 374.047 541.633 378.358 541.633 383.677Z" fill="#F9C054"/>
<path d="M498.131 375.626C477.131 375.626 460.107 379.082 460.107 383.345C460.107 387.608 477.13 391.064 498.131 391.064C519.13 391.064 536.154 387.608 536.154 383.345C536.154 379.082 519.13 375.626 498.131 375.626ZM498.131 389.062C479.698 389.062 464.756 386.205 464.756 382.68C464.756 379.157 479.698 376.299 498.131 376.299C516.563 376.299 531.505 379.157 531.505 382.68C531.505 386.205 516.563 389.062 498.131 389.062Z" fill="#2A323E"/>
<path d="M483.829 383.148L483.789 382.195L487.272 382.046C487.292 381.12 487.781 380.333 488.744 379.684L491.267 379.952C490.25 380.656 489.757 381.401 489.791 382.186C489.813 382.694 490.141 383.097 490.777 383.393C491.412 383.689 492.209 383.817 493.175 383.776C494.046 383.738 494.789 383.579 495.405 383.297C496.022 383.016 496.591 382.565 497.11 381.945C497.92 380.995 498.792 380.314 499.729 379.902C500.665 379.493 501.8 379.258 503.136 379.202C504.564 379.141 505.807 379.287 506.864 379.643C507.919 379.997 508.603 380.525 508.913 381.226L512.397 381.076L512.436 382.029L509.057 382.174C509.029 382.897 508.64 383.559 507.886 384.161L505.432 383.903C506.243 383.257 506.633 382.598 506.604 381.931C506.582 381.444 506.289 381.08 505.721 380.835C505.152 380.593 504.448 380.49 503.612 380.525C502.801 380.56 502.117 380.718 501.563 381C501.012 381.28 500.419 381.785 499.786 382.511C499.023 383.386 498.153 384.021 497.181 384.418C496.208 384.815 494.986 385.043 493.511 385.107C492.059 385.169 490.764 385.015 489.626 384.651C488.488 384.285 487.75 383.733 487.418 382.995L483.829 383.148Z" fill="#F9C054"/>
<path d="M547.639 380.034V370.893L537.06 374.214C529.084 372.18 517.317 370.893 504.193 370.893C491.068 370.893 479.301 372.18 471.325 374.214L460.745 370.893V380.036C460.708 380.197 460.689 380.36 460.689 380.523C460.689 385.843 480.167 390.153 504.193 390.153C528.219 390.153 547.696 385.843 547.696 380.523C547.696 380.359 547.677 380.196 547.639 380.034Z" fill="#F9C054"/>
<path d="M547.696 371.557C547.696 376.875 528.219 381.187 504.193 381.187C480.167 381.187 460.689 376.875 460.689 371.557C460.689 366.237 480.167 361.927 504.193 361.927C528.219 361.927 547.696 366.237 547.696 371.557Z" fill="#F9C054"/>
<path d="M504.193 363.505C483.193 363.505 466.17 366.962 466.17 371.225C466.17 375.488 483.193 378.944 504.193 378.944C525.193 378.944 542.217 375.487 542.217 371.225C542.217 366.962 525.193 363.505 504.193 363.505ZM504.193 376.942C485.76 376.942 470.818 374.085 470.818 370.56C470.818 367.036 485.76 364.179 504.193 364.179C522.625 364.179 537.567 367.036 537.567 370.56C537.567 374.085 522.625 376.942 504.193 376.942Z" fill="#2A323E"/>
<path d="M489.895 371.028L489.855 370.075L493.339 369.926C493.359 369 493.847 368.213 494.81 367.564L497.333 367.832C496.316 368.536 495.823 369.281 495.857 370.065C495.879 370.574 496.207 370.977 496.843 371.273C497.478 371.568 498.275 371.696 499.241 371.655C500.112 371.617 500.856 371.458 501.471 371.176C502.089 370.895 502.657 370.444 503.176 369.825C503.986 368.874 504.859 368.194 505.795 367.782C506.731 367.372 507.866 367.138 509.203 367.081C510.63 367.021 511.874 367.167 512.931 367.523C513.986 367.876 514.669 368.404 514.979 369.105L518.464 368.956L518.503 369.909L515.124 370.054C515.095 370.777 514.706 371.44 513.952 372.041L511.498 371.784C512.31 371.137 512.699 370.479 512.671 369.811C512.648 369.325 512.356 368.961 511.788 368.716C511.219 368.474 510.515 368.37 509.679 368.405C508.867 368.44 508.184 368.598 507.63 368.88C507.079 369.16 506.486 369.665 505.853 370.391C505.09 371.266 504.22 371.902 503.248 372.298C502.276 372.695 501.053 372.923 499.577 372.987C498.126 373.048 496.832 372.895 495.693 372.53C494.556 372.164 493.818 371.613 493.486 370.875L489.895 371.028Z" fill="#F9C054"/>
<path d="M541.579 367.913V358.772L530.999 362.094C523.023 360.059 511.256 358.772 498.132 358.772C485.008 358.772 473.241 360.059 465.264 362.094L454.685 358.772V367.915C454.648 368.077 454.629 368.239 454.629 368.402C454.629 373.722 474.106 378.032 498.132 378.032C522.158 378.032 541.635 373.722 541.635 368.402C541.635 368.238 541.616 368.075 541.579 367.913Z" fill="#F9C054"/>
<path d="M541.633 359.436C541.633 364.755 522.156 369.066 498.13 369.066C474.104 369.066 454.627 364.755 454.627 359.436C454.627 354.117 474.104 349.806 498.13 349.806C522.156 349.806 541.633 354.117 541.633 359.436Z" fill="#F9C054"/>
<path d="M498.131 351.385C477.131 351.385 460.107 354.841 460.107 359.104C460.107 363.367 477.13 366.823 498.131 366.823C519.13 366.823 536.154 363.367 536.154 359.104C536.154 354.841 519.13 351.385 498.131 351.385ZM498.131 364.821C479.698 364.821 464.756 361.964 464.756 358.44C464.756 354.916 479.698 352.058 498.131 352.058C516.563 352.058 531.505 354.916 531.505 358.44C531.505 361.964 516.563 364.821 498.131 364.821Z" fill="#2A323E"/>
<path d="M483.829 358.907L483.789 357.954L487.272 357.805C487.292 356.88 487.781 356.093 488.744 355.444L491.267 355.712C490.25 356.415 489.757 357.16 489.791 357.945C489.813 358.454 490.141 358.856 490.777 359.152C491.412 359.448 492.209 359.576 493.175 359.535C494.046 359.496 494.789 359.338 495.405 359.057C496.022 358.775 496.591 358.324 497.11 357.705C497.92 356.754 498.792 356.073 499.729 355.661C500.665 355.252 501.8 355.017 503.136 354.961C504.564 354.901 505.807 355.046 506.864 355.402C507.919 355.756 508.603 356.284 508.913 356.985L512.397 356.836L512.436 357.789L509.057 357.933C509.029 358.657 508.64 359.319 507.886 359.921L505.432 359.663C506.243 359.016 506.633 358.358 506.604 357.691C506.582 357.204 506.289 356.84 505.721 356.595C505.152 356.353 504.448 356.25 503.612 356.285C502.801 356.319 502.117 356.477 501.563 356.76C501.012 357.04 500.419 357.545 499.786 358.271C499.023 359.146 498.153 359.781 497.181 360.178C496.208 360.575 494.986 360.803 493.511 360.867C492.059 360.928 490.764 360.775 489.626 360.41C488.488 360.044 487.75 359.493 487.418 358.755L483.829 358.907Z" fill="#2A323E"/>
<path d="M160.643 477.476V469.296L151.176 472.268C144.039 470.447 133.51 469.296 121.766 469.296C110.022 469.296 99.4925 470.448 92.3554 472.268L82.8882 469.296V477.478C82.8554 477.622 82.8379 477.767 82.8379 477.913C82.8379 482.673 100.267 486.53 121.766 486.53C143.265 486.53 160.694 482.673 160.694 477.913C160.694 477.766 160.677 477.621 160.643 477.476Z" fill="#F9C054"/>
<path d="M160.694 469.89C160.694 474.649 143.265 478.507 121.766 478.507C100.267 478.507 82.8379 474.649 82.8379 469.89C82.8379 465.13 100.267 461.273 121.766 461.273C143.265 461.273 160.694 465.13 160.694 469.89Z" fill="#F9C054"/>
<path d="M121.764 462.686C102.973 462.686 87.7402 465.779 87.7402 469.593C87.7402 473.408 102.973 476.5 121.764 476.5C140.555 476.5 155.789 473.408 155.789 469.593C155.789 465.779 140.555 462.686 121.764 462.686ZM121.764 474.709C105.27 474.709 91.8992 472.152 91.8992 468.998C91.8992 465.845 105.27 463.288 121.764 463.288C138.258 463.288 151.629 465.845 151.629 468.998C151.629 472.153 138.258 474.709 121.764 474.709Z" fill="#2A323E"/>
<path d="M108.967 469.417L108.932 468.564L112.048 468.431C112.066 467.603 112.503 466.898 113.365 466.317L115.623 466.557C114.713 467.187 114.272 467.853 114.302 468.555C114.322 469.01 114.616 469.371 115.185 469.636C115.753 469.901 116.466 470.015 117.33 469.979C118.11 469.944 118.775 469.802 119.326 469.55C119.878 469.299 120.387 468.895 120.852 468.341C121.576 467.49 122.357 466.88 123.196 466.512C124.032 466.146 125.048 465.936 126.244 465.885C127.522 465.832 128.634 465.962 129.58 466.28C130.524 466.597 131.135 467.069 131.413 467.697L134.531 467.563L134.566 468.416L131.542 468.545C131.517 469.192 131.169 469.785 130.494 470.323L128.298 470.093C129.024 469.514 129.373 468.926 129.348 468.328C129.328 467.893 129.065 467.567 128.557 467.348C128.048 467.131 127.418 467.038 126.67 467.07C125.945 467.1 125.333 467.242 124.837 467.494C124.343 467.745 123.813 468.197 123.246 468.847C122.563 469.63 121.786 470.198 120.916 470.553C120.045 470.908 118.951 471.112 117.631 471.17C116.333 471.224 115.174 471.087 114.155 470.761C113.137 470.434 112.477 469.94 112.18 469.279L108.967 469.417Z" fill="#F9C054"/>
<path d="M160.643 465.59V457.41L151.176 460.381C144.039 458.56 133.51 457.409 121.766 457.409C110.022 457.409 99.4925 458.56 92.3554 460.381L82.8882 457.41V465.591C82.8554 465.736 82.8379 465.881 82.8379 466.027C82.8379 470.786 100.267 474.645 121.766 474.645C143.265 474.645 160.694 470.786 160.694 466.027C160.694 465.881 160.677 465.735 160.643 465.59Z" fill="#F9C054"/>
<path d="M121.766 466.622C143.265 466.622 160.694 462.763 160.694 458.004C160.694 453.244 143.265 449.386 121.766 449.386C100.267 449.386 82.8379 453.244 82.8379 458.004C82.8379 462.763 100.267 466.622 121.766 466.622Z" fill="#F9C054"/>
<path d="M121.764 450.799C102.973 450.799 87.7402 453.892 87.7402 457.707C87.7402 461.522 102.973 464.615 121.764 464.615C140.555 464.615 155.789 461.522 155.789 457.707C155.789 453.892 140.555 450.799 121.764 450.799ZM121.764 462.823C105.27 462.823 91.8992 460.266 91.8992 457.113C91.8992 453.959 105.27 451.403 121.764 451.403C138.258 451.403 151.629 453.959 151.629 457.113C151.629 460.266 138.258 462.823 121.764 462.823Z" fill="#2A323E"/>
<path d="M108.967 457.53L108.932 456.677L112.048 456.545C112.066 455.716 112.503 455.011 113.365 454.43L115.623 454.671C114.713 455.301 114.272 455.966 114.302 456.668C114.322 457.125 114.616 457.485 115.185 457.749C115.753 458.014 116.466 458.128 117.33 458.092C118.11 458.058 118.775 457.916 119.326 457.664C119.878 457.412 120.387 457.009 120.852 456.454C121.576 455.604 122.357 454.995 123.196 454.627C124.032 454.259 125.048 454.051 126.244 454C127.522 453.946 128.634 454.076 129.58 454.394C130.524 454.711 131.135 455.184 131.413 455.811L134.531 455.678L134.566 456.53L131.542 456.659C131.517 457.306 131.169 457.9 130.494 458.438L128.298 458.207C129.024 457.628 129.373 457.039 129.348 456.442C129.328 456.007 129.065 455.681 128.557 455.462C128.048 455.245 127.418 455.152 126.67 455.184C125.945 455.215 125.333 455.356 124.837 455.608C124.343 455.86 123.813 456.31 123.246 456.96C122.563 457.744 121.786 458.313 120.916 458.666C120.045 459.022 118.951 459.227 117.631 459.283C116.333 459.338 115.174 459.202 114.155 458.875C113.137 458.548 112.477 458.054 112.18 457.394L108.967 457.53Z" fill="#F9C054"/>
<path d="M154.697 453.704V445.523L145.23 448.495C138.092 446.674 127.563 445.523 115.82 445.523C104.075 445.523 93.5463 446.675 86.4092 448.495L76.9416 445.523V453.705C76.9092 453.849 76.8926 453.994 76.8926 454.141C76.8926 458.901 94.3205 462.758 115.82 462.758C137.319 462.758 154.747 458.901 154.747 454.141C154.747 453.994 154.73 453.848 154.697 453.704Z" fill="#F9C054"/>
<path d="M154.747 446.118C154.747 450.877 137.319 454.735 115.82 454.735C94.3209 454.735 76.8926 450.877 76.8926 446.118C76.8926 441.358 94.3204 437.501 115.82 437.501C137.319 437.501 154.747 441.358 154.747 446.118Z" fill="#F9C054"/>
<path d="M115.82 438.913C97.0279 438.913 81.7949 442.006 81.7949 445.82C81.7949 449.635 97.0279 452.727 115.82 452.727C134.611 452.727 149.844 449.635 149.844 445.82C149.844 442.006 134.611 438.913 115.82 438.913ZM115.82 450.937C99.3259 450.937 85.9551 448.38 85.9551 445.226C85.9551 442.072 99.3255 439.516 115.82 439.516C132.314 439.516 145.684 442.072 145.684 445.226C145.684 448.38 132.314 450.937 115.82 450.937Z" fill="#2A323E"/>
<path d="M103.022 445.644L102.986 444.792L106.103 444.659C106.121 443.83 106.558 443.126 107.42 442.545L109.678 442.786C108.768 443.415 108.327 444.081 108.357 444.783C108.376 445.238 108.671 445.599 109.24 445.864C109.808 446.128 110.521 446.243 111.386 446.207C112.165 446.172 112.831 446.031 113.381 445.778C113.934 445.526 114.443 445.123 114.908 444.569C115.632 443.718 116.413 443.109 117.251 442.741C118.088 442.374 119.104 442.164 120.299 442.113C121.577 442.06 122.689 442.19 123.636 442.508C124.58 442.826 125.192 443.297 125.469 443.924L128.587 443.791L128.622 444.644L125.598 444.773C125.573 445.42 125.224 446.014 124.55 446.552L122.354 446.322C123.08 445.742 123.428 445.153 123.403 444.556C123.383 444.121 123.121 443.795 122.613 443.576C122.103 443.359 121.473 443.267 120.725 443.297C120 443.328 119.388 443.47 118.892 443.722C118.399 443.973 117.868 444.424 117.302 445.075C116.619 445.858 115.841 446.427 114.971 446.781C114.101 447.136 113.007 447.34 111.686 447.398C110.388 447.453 109.229 447.315 108.211 446.989C107.193 446.662 106.532 446.168 106.235 445.508L103.022 445.644Z" fill="#F9C054"/>
<path d="M160.643 441.818V433.638L151.176 436.609C144.039 434.788 133.51 433.638 121.766 433.638C110.022 433.638 99.4925 434.789 92.3554 436.609L82.8882 433.638V441.818C82.8554 441.964 82.8379 442.109 82.8379 442.255C82.8379 447.014 100.267 450.872 121.766 450.872C143.265 450.872 160.694 447.014 160.694 442.255C160.694 442.107 160.677 441.963 160.643 441.818Z" fill="#F9C054"/>
<path d="M160.694 434.232C160.694 438.991 143.265 442.849 121.766 442.849C100.267 442.849 82.8379 438.991 82.8379 434.232C82.8379 429.472 100.267 425.614 121.766 425.614C143.265 425.614 160.694 429.472 160.694 434.232Z" fill="#F9C054"/>
<path d="M121.764 427.027C102.973 427.027 87.7402 430.12 87.7402 433.934C87.7402 437.749 102.973 440.842 121.764 440.842C140.555 440.842 155.789 437.749 155.789 433.934C155.789 430.12 140.555 427.027 121.764 427.027ZM121.764 439.049C105.27 439.049 91.8992 436.494 91.8992 433.339C91.8992 430.186 105.27 427.63 121.764 427.63C138.258 427.63 151.629 430.186 151.629 433.339C151.629 436.494 138.258 439.049 121.764 439.049Z" fill="#2A323E"/>
<path d="M108.967 433.758L108.932 432.906L112.048 432.772C112.066 431.944 112.503 431.24 113.365 430.659L115.623 430.899C114.713 431.529 114.272 432.194 114.302 432.897C114.322 433.353 114.616 433.713 115.185 433.978C115.753 434.242 116.466 434.357 117.33 434.32C118.11 434.286 118.775 434.144 119.326 433.892C119.878 433.64 120.387 433.236 120.852 432.682C121.576 431.832 122.357 431.222 123.196 430.854C124.032 430.487 125.048 430.278 126.244 430.227C127.522 430.173 128.634 430.304 129.58 430.622C130.524 430.939 131.135 431.412 131.413 432.038L134.531 431.905L134.566 432.758L131.542 432.886C131.517 433.534 131.169 434.127 130.494 434.665L128.298 434.435C129.024 433.856 129.373 433.267 129.348 432.67C129.328 432.235 129.065 431.908 128.557 431.69C128.048 431.473 127.418 431.38 126.67 431.412C125.945 431.442 125.333 431.584 124.837 431.836C124.343 432.087 123.813 432.538 123.246 433.188C122.563 433.972 121.786 434.54 120.916 434.894C120.045 435.25 118.951 435.454 117.631 435.511C116.333 435.565 115.174 435.429 114.155 435.103C113.137 434.775 112.477 434.282 112.18 433.621L108.967 433.758Z" fill="#F9C054"/>
<path d="M163.614 429.931V421.751L154.147 424.722C147.009 422.901 136.48 421.751 124.736 421.751C112.992 421.751 102.463 422.902 95.326 424.722L85.858 421.751V429.932C85.8252 430.077 85.8086 430.222 85.8086 430.368C85.8086 435.127 103.237 438.986 124.736 438.986C146.236 438.986 163.664 435.127 163.664 430.368C163.664 430.222 163.647 430.076 163.614 429.931Z" fill="#F9C054"/>
<path d="M163.664 422.345C163.664 427.104 146.236 430.963 124.736 430.963C103.237 430.963 85.8086 427.104 85.8086 422.345C85.8086 417.586 103.237 413.728 124.736 413.728C146.236 413.728 163.664 417.586 163.664 422.345Z" fill="#F9C054"/>
<path d="M124.735 415.14C105.944 415.14 90.7109 418.233 90.7109 422.048C90.7109 425.863 105.944 428.955 124.735 428.955C143.527 428.955 158.76 425.863 158.76 422.048C158.76 418.233 143.526 415.14 124.735 415.14ZM124.735 427.164C108.242 427.164 94.8703 424.607 94.8703 421.454C94.8703 418.3 108.242 415.743 124.735 415.743C141.229 415.743 154.6 418.3 154.6 421.454C154.6 424.607 141.229 427.164 124.735 427.164Z" fill="#2A323E"/>
<path d="M111.942 421.872L111.906 421.019L115.023 420.886C115.041 420.057 115.478 419.353 116.34 418.772L118.598 419.013C117.688 419.643 117.247 420.308 117.277 421.01C117.296 421.466 117.591 421.827 118.16 422.091C118.728 422.356 119.441 422.47 120.305 422.434C121.084 422.4 121.75 422.258 122.301 422.005C122.854 421.754 123.363 421.35 123.827 420.796C124.551 419.946 125.332 419.336 126.17 418.968C127.008 418.601 128.024 418.392 129.219 418.341C130.497 418.288 131.609 418.418 132.555 418.736C133.499 419.053 134.11 419.525 134.388 420.152L137.506 420.019L137.541 420.871L134.518 421C134.492 421.647 134.144 422.241 133.469 422.78L131.273 422.549C131.998 421.969 132.348 421.381 132.322 420.784C132.303 420.349 132.04 420.022 131.532 419.804C131.023 419.586 130.393 419.494 129.644 419.525C128.919 419.556 128.307 419.698 127.811 419.949C127.318 420.202 126.787 420.652 126.221 421.302C125.538 422.085 124.76 422.655 123.891 423.009C123.02 423.363 121.926 423.568 120.606 423.625C119.307 423.68 118.149 423.543 117.13 423.216C116.112 422.889 115.452 422.395 115.155 421.735L111.942 421.872Z" fill="#F9C054"/>
<path d="M160.643 418.045V409.865L151.176 412.837C144.039 411.016 133.51 409.865 121.766 409.865C110.022 409.865 99.4925 411.017 92.3554 412.837L82.8882 409.865V418.046C82.8554 418.191 82.8379 418.336 82.8379 418.482C82.8379 423.242 100.267 427.1 121.766 427.1C143.265 427.1 160.694 423.242 160.694 418.482C160.694 418.335 160.677 418.189 160.643 418.045Z" fill="#F9C054"/>
<path d="M160.694 410.459C160.694 415.219 143.265 419.076 121.766 419.076C100.267 419.076 82.8379 415.219 82.8379 410.459C82.8379 405.699 100.267 401.842 121.766 401.842C143.265 401.842 160.694 405.699 160.694 410.459Z" fill="#F9C054"/>
<path d="M121.764 403.254C102.973 403.254 87.7402 406.347 87.7402 410.162C87.7402 413.976 102.973 417.069 121.764 417.069C140.555 417.069 155.789 413.976 155.789 410.162C155.789 406.347 140.555 403.254 121.764 403.254ZM121.764 415.277C105.27 415.277 91.8992 412.721 91.8992 409.567C91.8992 406.414 105.27 403.857 121.764 403.857C138.258 403.857 151.629 406.414 151.629 409.567C151.629 412.721 138.258 415.277 121.764 415.277Z" fill="#2A323E"/>
<path d="M108.967 409.986L108.932 409.133L112.048 408.999C112.066 408.171 112.503 407.467 113.365 406.886L115.623 407.126C114.713 407.756 114.272 408.422 114.302 409.124C114.322 409.58 114.616 409.94 115.185 410.205C115.753 410.47 116.466 410.584 117.33 410.547C118.11 410.513 118.775 410.371 119.326 410.119C119.878 409.867 120.387 409.464 120.852 408.909C121.576 408.059 122.357 407.45 123.196 407.082C124.032 406.715 125.048 406.505 126.244 406.455C127.522 406.401 128.634 406.531 129.58 406.85C130.524 407.167 131.135 407.639 131.413 408.266L134.531 408.133L134.566 408.985L131.542 409.114C131.517 409.762 131.169 410.355 130.494 410.893L128.298 410.663C129.024 410.083 129.373 409.495 129.348 408.898C129.328 408.462 129.065 408.136 128.557 407.917C128.048 407.701 127.418 407.608 126.67 407.639C125.945 407.67 125.333 407.811 124.837 408.064C124.343 408.315 123.813 408.766 123.246 409.416C122.563 410.199 121.786 410.768 120.916 411.122C120.045 411.477 118.951 411.682 117.631 411.739C116.333 411.793 115.174 411.657 114.155 411.33C113.137 411.003 112.477 410.51 112.18 409.849L108.967 409.986Z" fill="#F9C054"/>
<path d="M154.685 407.199V399.019L145.218 401.991C138.081 400.17 127.552 399.019 115.808 399.019C104.064 399.019 93.5345 400.171 86.3979 401.991L76.9303 399.019V407.201C76.8975 407.345 76.8809 407.49 76.8809 407.636C76.8809 412.396 94.3087 416.254 115.809 416.254C137.308 416.254 154.736 412.396 154.736 407.636C154.735 407.49 154.719 407.344 154.685 407.199Z" fill="#F9C054"/>
<path d="M154.736 399.613C154.736 404.373 137.308 408.231 115.809 408.231C94.3092 408.231 76.8809 404.373 76.8809 399.613C76.8809 394.853 94.3088 390.996 115.809 390.996C137.308 390.996 154.736 394.853 154.736 399.613Z" fill="#F9C054"/>
<path d="M115.808 392.409C97.0162 392.409 81.7832 395.502 81.7832 399.316C81.7832 403.131 97.0162 406.224 115.808 406.224C134.598 406.224 149.831 403.131 149.831 399.316C149.831 395.502 134.598 392.409 115.808 392.409ZM115.808 404.432C99.3134 404.432 85.9426 401.876 85.9426 398.721C85.9426 395.568 99.313 393.011 115.808 393.011C132.301 393.011 145.672 395.568 145.672 398.721C145.671 401.876 132.301 404.432 115.808 404.432Z" fill="#2A323E"/>
<path d="M103.012 399.14L102.977 398.287L106.093 398.154C106.111 397.325 106.548 396.621 107.41 396.041L109.668 396.28C108.758 396.91 108.317 397.576 108.347 398.279C108.366 398.734 108.661 399.094 109.23 399.359C109.797 399.623 110.511 399.738 111.375 399.701C112.155 399.667 112.82 399.525 113.371 399.273C113.924 399.021 114.432 398.618 114.897 398.064C115.621 397.213 116.402 396.604 117.241 396.235C118.078 395.869 119.094 395.659 120.289 395.608C121.566 395.555 122.679 395.685 123.625 396.003C124.569 396.32 125.18 396.793 125.458 397.419L128.576 397.286L128.611 398.138L125.587 398.267C125.562 398.915 125.214 399.508 124.539 400.046L122.343 399.816C123.069 399.237 123.418 398.648 123.392 398.051C123.372 397.615 123.11 397.289 122.602 397.07C122.093 396.854 121.463 396.761 120.714 396.792C119.989 396.823 119.377 396.964 118.881 397.217C118.388 397.468 117.857 397.919 117.291 398.57C116.608 399.352 115.831 399.921 114.961 400.275C114.09 400.63 112.996 400.835 111.676 400.892C110.377 400.947 109.218 400.81 108.2 400.483C107.182 400.156 106.521 399.663 106.224 399.002L103.012 399.14Z" fill="#2A323E"/>
<path d="M526.545 595.039V583.207L512.85 587.505C502.526 584.872 487.296 583.206 470.308 583.206C453.32 583.206 438.09 584.872 427.766 587.505L414.071 583.207V595.041C414.024 595.25 414 595.46 414 595.672C414 602.556 439.21 608.137 470.309 608.137C501.407 608.137 526.617 602.556 526.617 595.672C526.617 595.459 526.592 595.248 526.545 595.039Z" fill="#F9C054"/>
<path d="M470.309 596.531C501.407 596.531 526.617 590.95 526.617 584.066C526.617 577.181 501.407 571.6 470.309 571.6C439.21 571.6 414 577.181 414 584.066C414 590.95 439.21 596.531 470.309 596.531Z" fill="#F9C054"/>
<path d="M470.31 573.645C443.128 573.645 421.094 578.118 421.094 583.636C421.094 589.155 443.128 593.628 470.31 593.628C497.492 593.628 519.526 589.155 519.526 583.636C519.526 578.118 497.491 573.645 470.31 573.645ZM470.31 591.036C446.452 591.036 427.111 587.338 427.111 582.776C427.111 578.214 446.452 574.517 470.31 574.517C494.168 574.517 513.509 578.215 513.509 582.776C513.509 587.338 494.168 591.036 470.31 591.036Z" fill="#2A323E"/>
<path d="M451.798 583.381L451.746 582.147L456.255 581.955C456.28 580.757 456.913 579.737 458.159 578.898L461.425 579.246C460.109 580.157 459.471 581.119 459.514 582.135C459.543 582.794 459.968 583.316 460.791 583.698C461.613 584.081 462.645 584.247 463.895 584.194C465.023 584.144 465.986 583.939 466.782 583.574C467.582 583.209 468.317 582.626 468.989 581.824C470.036 580.594 471.166 579.712 472.378 579.18C473.59 578.649 475.06 578.347 476.788 578.273C478.636 578.195 480.245 578.384 481.614 578.844C482.98 579.303 483.864 579.986 484.265 580.893L488.776 580.7L488.826 581.933L484.453 582.119C484.416 583.056 483.912 583.914 482.937 584.693L479.76 584.359C480.811 583.522 481.315 582.669 481.278 581.806C481.249 581.176 480.87 580.704 480.134 580.388C479.398 580.074 478.487 579.941 477.404 579.986C476.355 580.03 475.47 580.235 474.753 580.6C474.039 580.963 473.272 581.616 472.453 582.556C471.464 583.688 470.339 584.511 469.082 585.023C467.822 585.538 466.239 585.833 464.329 585.915C462.452 585.995 460.775 585.796 459.302 585.324C457.829 584.851 456.874 584.137 456.444 583.182L451.798 583.381Z" fill="#2A323E"/>
<path opacity="0.15" d="M132.13 569.45C132.13 576.435 107.393 582.095 76.8785 582.095C46.3657 582.095 21.6289 576.435 21.6289 569.45C21.6289 562.469 46.3657 556.806 76.8785 556.806C107.393 556.806 132.13 562.469 132.13 569.45Z" fill="#2A323E"/>
<path d="M125.671 567.52V556.875L113.351 560.742C104.063 558.373 90.3619 556.875 75.0794 556.875C59.797 556.875 46.0959 558.373 36.8082 560.742L24.4882 556.875V567.522C24.446 567.71 24.4238 567.898 24.4238 568.089C24.4238 574.282 47.1029 579.303 75.0794 579.303C103.056 579.303 125.735 574.282 125.735 568.089C125.735 567.898 125.713 567.708 125.671 567.52Z" fill="#F9C054"/>
<path d="M75.0794 568.862C103.056 568.862 125.735 563.842 125.735 557.648C125.735 551.455 103.056 546.435 75.0794 546.435C47.1031 546.435 24.4238 551.455 24.4238 557.648C24.4238 563.842 47.1031 568.862 75.0794 568.862Z" fill="#F9C054"/>
<path d="M75.08 548.273C50.627 548.273 30.8047 552.298 30.8047 557.262C30.8047 562.226 50.627 566.251 75.08 566.251C99.533 566.251 119.355 562.226 119.355 557.262C119.355 552.298 99.533 548.273 75.08 548.273ZM75.08 563.919C53.6171 563.919 36.2181 560.593 36.2181 556.489C36.2181 552.385 53.6175 549.058 75.08 549.058C96.5433 549.058 113.942 552.384 113.942 556.489C113.942 560.593 96.5433 563.919 75.08 563.919Z" fill="#2A323E"/>
<path d="M58.4293 557.032L58.3828 555.923L62.4387 555.75C62.4617 554.671 63.031 553.754 64.1521 552.999L67.0902 553.312C65.9064 554.131 65.3324 554.997 65.3712 555.911C65.3968 556.504 65.7799 556.973 66.5201 557.317C67.2594 557.662 68.1879 557.81 69.312 557.763C70.3262 557.719 71.1925 557.534 71.9088 557.206C72.6281 556.878 73.2898 556.353 73.8945 555.632C74.8362 554.525 75.8529 553.732 76.9434 553.253C78.0334 552.776 79.3553 552.503 80.9106 552.437C82.5733 552.367 84.0209 552.537 85.2519 552.95C86.4809 553.363 87.276 553.978 87.6369 554.794L91.6948 554.62L91.7401 555.73L87.8052 555.897C87.772 556.739 87.319 557.512 86.4417 558.212L83.5836 557.912C84.5288 557.158 84.9822 556.392 84.9494 555.615C84.9234 555.049 84.5821 554.624 83.9203 554.339C83.2581 554.057 82.4383 553.936 81.4642 553.977C80.5203 554.017 79.7242 554.201 79.0795 554.53C78.4378 554.857 77.7466 555.444 77.0099 556.29C76.121 557.309 75.1085 558.049 73.9772 558.51C72.8441 558.973 71.4205 559.239 69.7023 559.312C68.0132 559.384 66.5051 559.205 65.1795 558.781C63.8542 558.354 62.9951 557.712 62.6087 556.853L58.4293 557.032Z" fill="#2A323E"/>
<path d="M239.649 530.64V521.567L229.148 524.863C221.232 522.844 209.553 521.567 196.527 521.567C183.501 521.567 171.822 522.843 163.905 524.863L153.404 521.567V530.642C153.368 530.802 153.35 530.963 153.35 531.125C153.35 536.405 172.681 540.684 196.527 540.684C220.373 540.684 239.704 536.405 239.704 531.125C239.704 530.962 239.686 530.801 239.649 530.64Z" fill="#F9C054"/>
<path d="M196.527 531.784C220.373 531.784 239.704 527.505 239.704 522.226C239.704 516.947 220.373 512.667 196.527 512.667C172.681 512.667 153.35 516.947 153.35 522.226C153.35 527.505 172.681 531.784 196.527 531.784Z" fill="#F9C054"/>
<path d="M196.528 514.235C175.685 514.235 158.789 517.665 158.789 521.896C158.789 526.128 175.685 529.558 196.528 529.558C217.371 529.558 234.267 526.128 234.267 521.896C234.267 517.665 217.371 514.235 196.528 514.235ZM196.528 527.571C178.234 527.571 163.403 524.735 163.403 521.237C163.403 517.739 178.234 514.904 196.528 514.904C214.823 514.904 229.653 517.739 229.653 521.237C229.653 524.735 214.823 527.571 196.528 527.571Z" fill="#2A323E"/>
<path d="M182.335 521.7L182.295 520.755L185.752 520.607C185.772 519.688 186.257 518.907 187.212 518.263L189.717 518.529C188.708 519.228 188.218 519.966 188.252 520.745C188.273 521.251 188.6 521.651 189.231 521.944C189.861 522.238 190.652 522.364 191.611 522.324C192.475 522.286 193.214 522.129 193.825 521.848C194.438 521.569 195.001 521.121 195.517 520.507C196.32 519.564 197.186 518.888 198.116 518.48C199.045 518.072 200.172 517.841 201.498 517.784C202.915 517.724 204.149 517.869 205.198 518.222C206.246 518.574 206.923 519.097 207.231 519.793L210.69 519.645L210.729 520.59L207.375 520.734C207.347 521.451 206.961 522.11 206.212 522.706L203.776 522.45C204.582 521.808 204.968 521.155 204.94 520.493C204.918 520.01 204.628 519.648 204.063 519.405C203.499 519.165 202.8 519.062 201.97 519.097C201.165 519.131 200.487 519.288 199.937 519.568C199.39 519.846 198.801 520.347 198.173 521.068C197.416 521.936 196.553 522.567 195.588 522.96C194.622 523.354 193.409 523.581 191.944 523.644C190.505 523.705 189.219 523.553 188.089 523.191C186.96 522.827 186.228 522.28 185.898 521.548L182.335 521.7Z" fill="#2A323E"/>
<path d="M294.656 533.926L296.846 525.121L285.86 525.785C278.665 521.915 267.64 517.857 254.999 514.713C242.358 511.569 230.716 509.989 222.547 510.038L213.151 504.305L210.961 513.112C210.887 513.259 210.83 513.41 210.791 513.568C209.517 518.69 227.244 527.509 250.385 533.265C273.526 539.02 293.319 539.533 294.593 534.41C294.632 534.252 294.652 534.09 294.656 533.926Z" fill="#F9C054"/>
<path d="M296.758 525.84C298.032 520.717 280.307 511.898 257.166 506.141C234.026 500.385 214.234 499.871 212.96 504.994C211.685 510.116 229.411 518.936 252.552 524.692C275.692 530.449 295.484 530.962 296.758 525.84Z" fill="#F9C054"/>
<path d="M256.77 507.598C236.543 502.567 219.319 501.818 218.297 505.924C217.276 510.03 232.845 517.437 253.072 522.468C273.298 527.498 290.523 528.247 291.544 524.141C292.565 520.035 276.997 512.628 256.77 507.598ZM253.551 520.539C235.798 516.123 222.09 509.792 222.935 506.398C223.779 503.003 238.855 503.831 256.609 508.247C274.363 512.662 288.07 518.993 287.226 522.388C286.382 525.783 271.305 524.955 253.551 520.539Z" fill="#2A323E"/>
<path d="M241.195 511.418L241.385 510.49L244.776 511.181C245.016 510.294 245.676 509.653 246.759 509.259L249.125 510.122C247.977 510.556 247.324 511.155 247.168 511.918C247.067 512.414 247.287 512.881 247.829 513.318C248.369 513.755 249.107 514.069 250.047 514.261C250.895 514.433 251.649 514.458 252.309 514.334C252.972 514.211 253.627 513.912 254.276 513.441C255.283 512.719 256.287 512.272 257.287 512.101C258.287 511.93 259.437 511.977 260.737 512.242C262.126 512.525 263.289 512.964 264.222 513.56C265.154 514.154 265.685 514.826 265.816 515.575L269.208 516.266L269.017 517.193L265.728 516.523C265.527 517.213 264.994 517.759 264.124 518.157L261.821 517.321C262.758 516.892 263.291 516.351 263.424 515.702C263.519 515.228 263.324 514.806 262.835 514.435C262.345 514.065 261.691 513.797 260.877 513.63C260.088 513.469 259.392 513.458 258.791 513.597C258.193 513.735 257.5 514.078 256.717 514.627C255.773 515.286 254.783 515.691 253.752 515.839C252.72 515.989 251.487 515.916 250.051 515.623C248.639 515.335 247.428 514.877 246.419 514.253C245.411 513.628 244.832 512.92 244.689 512.13L241.195 511.418Z" fill="#2A323E"/>
<path d="M487.942 231.632L469.892 247.816L441.475 251.476L441.445 255.454L470.577 255.536C470.577 255.536 474.084 254.676 476.095 252.274C478.105 249.872 492.963 236.339 492.963 236.339C492.963 236.339 495.844 226.353 487.942 231.632Z" fill="#FFD2A5"/>
<path d="M396.889 252.672C396.889 252.672 401.823 279.843 403.942 281.547C406.061 283.251 436.299 270.054 438.217 267.67C440.133 265.286 421.204 243.697 421.204 243.697C421.204 243.697 408.38 242.72 396.889 252.672Z" fill="#4B5162"/>
<path d="M401.861 264.607L374.006 275.707L375.999 281.148L409.642 277.929L401.861 264.607Z" fill="#4B5162"/>
<path d="M378.503 278.068C379.528 282.172 378.585 285.942 376.396 286.489C374.207 287.036 371.602 284.152 370.576 280.048C369.551 275.944 370.494 272.174 372.683 271.627C374.872 271.08 377.477 273.964 378.503 278.068Z" fill="#4B5162"/>
<path d="M439.613 264.25C436.578 265.641 432.695 265.529 432.511 265.523L432.571 263.723C432.616 263.724 437.155 263.849 439.759 262.118C439.801 262.09 439.89 262.031 439.913 261.771C440.149 259.159 433.839 250.947 429.634 246.896C428.797 246.09 427.961 245.744 427.077 245.839C425.1 246.051 423.468 248.406 423.452 248.429L421.957 247.426C422.041 247.3 424.05 244.352 426.885 244.049C428.311 243.896 429.656 244.418 430.883 245.599C433.378 248.003 442.081 257.798 441.708 261.933C441.623 262.86 441.144 263.361 440.757 263.619C440.397 263.857 440.012 264.067 439.613 264.25Z" fill="#4B5162"/>
<path d="M450.103 250.521L440.727 251.564C440.727 251.564 438.279 248.791 437.611 248.651C436.943 248.512 433.821 247.135 433.821 247.135C433.821 247.135 433.731 249.17 434.83 249.485C435.93 249.8 436.792 250.152 436.792 250.152L433.198 250.949C433.198 250.949 431.572 256.129 435.193 257.591L441.325 255.432L451.047 255.063C451.047 255.063 454.184 250.78 450.103 250.521Z" fill="#FFD2A5"/>
<path d="M436.703 250.723C436.703 250.723 438.901 251.396 439.255 252.512C439.609 253.628 440.258 255.076 438.066 255.913C438.066 255.913 438.603 255.223 438.111 254.717C438.111 254.717 438.499 253.555 437.774 253.502C437.774 253.502 437.921 252.179 437.225 252.069C437.225 252.069 437.819 251.409 436.827 250.967L436.703 250.723Z" fill="#F5C28F"/>
<path d="M487.141 249.379L477.527 239.366C477.527 239.366 491.918 223.269 495.025 228.563C498.301 234.145 487.141 249.379 487.141 249.379Z" fill="#648DD0"/>
<path opacity="0.1" d="M536.196 358.124C536.196 360.71 520.157 362.807 500.372 362.807C480.588 362.807 464.549 360.71 464.549 358.124C464.549 355.537 480.588 353.44 500.372 353.44C520.157 353.44 536.196 355.537 536.196 358.124Z" fill="#2A323E"/>
<path d="M484.932 342.493L485.408 353.771C485.408 353.771 485.168 355.934 486.589 356.276C488.011 356.617 489.004 355.906 489.004 355.906L491.642 340.412L484.932 342.493Z" fill="#FFD2A5"/>
<path d="M513.379 343.388L516.68 354.182C516.68 354.182 516.989 356.336 518.451 356.309C519.914 356.281 520.695 355.343 520.695 355.343L519.35 339.684L513.379 343.388Z" fill="#FFD2A5"/>
<path d="M522.135 351.313L511.998 351.664L494.351 278.673L492.241 352.943L482.393 352.24L480.283 270.936L511.585 271.991L522.135 351.313Z" fill="#2A323E"/>
<path d="M479.459 276.69L513.568 280.533L511.753 231.701C511.753 231.701 510.475 225.311 501.849 225.311C493.222 225.311 485.555 230.742 485.555 236.813C485.555 236.813 478.181 260.716 479.459 276.69Z" fill="#6099F7"/>
<path d="M489.823 353.972C490.526 354.766 490.475 358.615 490.475 358.615C490.475 358.615 480.26 358.715 479.973 358.718C477.472 358.743 483.752 354.027 485.111 354.423C485.753 354.608 485.865 355.83 487.349 355.882C488.832 355.934 489.508 353.615 489.823 353.972Z" fill="#2A323E"/>
<path d="M490.476 358.615C490.476 358.615 479.847 358.719 479.561 358.722C479.368 358.725 479.083 357.936 479.664 357.828L490.467 357.722C490.481 358.249 490.476 358.615 490.476 358.615Z" fill="#2A323E"/>
<path d="M523.872 358.224C523.872 358.224 524.022 356.806 523.514 356.15C522.878 355.328 521.644 353.568 519.816 353.568C519.816 353.568 516.674 353.215 515.283 356.737V358.185L523.872 358.224Z" fill="#2A323E"/>
<path d="M523.894 357.726H515.205V358.694H523.894V357.726Z" fill="#2A323E"/>
<path d="M516.689 234.596L528.939 255.493C528.939 255.493 530.025 258.271 528.219 259.817C526.412 261.363 513.326 275.827 513.326 275.827C513.326 275.827 508.339 273.913 511.825 269.365C515.31 264.817 521.013 255.493 521.013 255.493L510.744 241.081C510.744 241.081 510.869 231.975 516.689 234.596Z" fill="#FFD2A5"/>
<path d="M523.803 244.19L510.757 248.931C510.757 248.931 501.856 229.259 507.953 228.559C514.385 227.82 523.803 244.19 523.803 244.19Z" fill="#648DD0"/>
<path d="M503.962 224.528C503.962 224.528 506.016 228.903 499.231 229.617C493.326 230.238 497.623 225.509 499.766 224.438C501.909 223.367 503.962 224.528 503.962 224.528Z" fill="#FFD2A5"/>
<path d="M497.195 227.107L504.168 225.285L505.38 216.152L498.768 215.273L497.195 227.107Z" fill="#FFD2A5"/>
<path d="M504.241 224.749L497.844 222.234L498.278 218.982L498.564 217.739L505.213 217.433L504.241 224.749Z" fill="#FFD2A5"/>
<path d="M494.749 214.488C496.106 218.684 500.611 220.986 504.807 219.629C509.005 218.27 511.307 213.768 509.949 209.57C508.591 205.372 504.088 203.071 499.892 204.429C495.693 205.787 493.392 210.29 494.749 214.488Z" fill="#EDC3B3"/>
<path d="M508.521 217.078C508.521 217.078 497.057 225.613 494.534 218.897C492.009 212.183 495.656 206.972 498.04 205.402C499.337 204.547 508.362 208.338 508.521 217.078Z" fill="#FFD2A5"/>
<path d="M503.273 213.337C503.273 213.337 505.993 210.07 506.735 212.608C507.477 215.147 504.687 215.013 504.687 215.013L505.377 219.774C505.377 219.774 515.579 218.085 510.671 208.935C510.671 208.935 511.101 204.245 506.799 202.915C502.497 201.583 497.789 204.569 494.607 203.309C494.607 203.309 492.585 201.836 492.744 204.205C492.744 204.205 490.827 203.819 491.829 205.756C492.831 207.693 491.86 209.439 494.724 209.466C497.587 209.494 503.028 208.494 503.028 208.494C503.028 208.494 500.526 210.429 503.273 213.337Z" fill="#2A323E"/>
<path d="M514.376 271.905C514.376 271.905 513.178 277.332 513.178 278.248C513.178 279.164 512.262 284.943 512.262 284.943C512.262 284.943 511.063 285.013 511.063 283.674C511.063 282.335 511.346 279.516 511.346 279.516L508.385 282.688C508.385 282.688 507.681 281.7 508.033 281.207C508.385 280.713 509.653 279.516 509.653 279.516L507.609 279.868C507.609 279.868 507.328 278.882 507.751 278.741C508.173 278.599 510.288 277.965 510.288 277.965L507.998 278.106C507.998 278.106 508.068 277.366 508.561 277.33C509.055 277.296 510.323 275.005 510.323 275.005C510.323 275.005 509.386 269.878 513.407 267.757L514.376 271.905Z" fill="#FFD2A5"/>
<path opacity="0.1" d="M153.126 399.321C153.126 401.907 137.087 404.003 117.303 404.003C97.5186 404.003 81.4785 401.907 81.4785 399.321C81.4785 396.734 97.5182 394.637 117.303 394.637C137.088 394.637 153.126 396.734 153.126 399.321Z" fill="#2A323E"/>
<path d="M125.074 386.406L126.891 398.169C126.891 398.169 126.891 400.463 128.421 400.656C129.951 400.846 130.907 399.986 130.907 399.986L131.864 383.441L125.074 386.406Z" fill="#FFD2A5"/>
<path d="M103.419 381.284L102.271 393.129C102.271 393.129 101.703 395.354 103.138 395.919C104.574 396.482 105.714 395.885 105.714 395.885L110.732 380.09L103.419 381.284Z" fill="#FFD2A5"/>
<path d="M161.836 236.069L146.494 258.924C146.494 258.924 140.756 260.741 141.522 254.142L159.228 231.815L161.836 236.069Z" fill="#FFD2A5"/>
<path d="M170.592 242.283L156.82 262.941C156.82 262.941 151.082 264.758 151.848 258.159L165.906 240.562L170.592 242.283Z" fill="#FFD2A5"/>
<path d="M147.64 244.962L153.953 251.847L149.362 259.02C149.362 259.02 123.541 281.398 122.68 280.824C121.82 280.251 117.803 280.251 117.516 275.087C117.229 269.923 123.254 265.045 123.254 265.045L143.337 249.839L147.64 244.962Z" fill="#648DD0"/>
<path d="M147.355 242.953C147.355 242.953 145.729 244.292 146.494 245.631C147.259 246.97 153.666 253.377 153.666 253.377C153.666 253.377 156.918 252.899 155.674 250.891C154.432 248.882 148.502 242.379 147.355 242.953Z" fill="#6099F7"/>
<path d="M125.724 255.424L119.033 257.594L122.916 269.567L129.608 267.397L125.724 255.424Z" fill="#FFD2A5"/>
<path d="M129.764 253.848C129.155 258.458 124.923 261.704 120.312 261.095C115.699 260.486 112.455 256.255 113.064 251.643C113.672 247.03 117.904 243.786 122.515 244.396C127.128 245.004 130.373 249.236 129.764 253.848Z" fill="#FFD2A5"/>
<path d="M115.975 259.158C115.975 259.158 129.49 265.826 130.828 258.381C132.167 250.936 127.392 246.226 124.621 245.052C123.112 244.412 114.475 250.063 115.975 259.158Z" fill="#FFD2A5"/>
<path d="M126.15 397.323C125.409 398.162 125.462 402.218 125.462 402.218C125.462 402.218 136.235 402.325 136.536 402.329C139.173 402.355 132.553 397.381 131.119 397.799C130.442 397.995 130.323 399.283 128.76 399.339C127.195 399.393 126.482 396.948 126.15 397.323Z" fill="#2A323E"/>
<path d="M125.462 402.218C125.462 402.218 136.669 402.33 136.971 402.332C137.175 402.334 137.476 401.502 136.862 401.389L125.471 401.277C125.457 401.834 125.462 402.218 125.462 402.218Z" fill="#2A323E"/>
<path d="M101.48 392.952C100.767 393.813 100.954 397.867 100.954 397.867C100.954 397.867 111.724 397.619 112.026 397.613C114.662 397.552 107.883 392.799 106.463 393.264C105.793 393.482 105.716 394.772 104.155 394.881C102.594 394.987 101.801 392.565 101.48 392.952Z" fill="#2A323E"/>
<path d="M100.953 397.867C100.953 397.867 112.159 397.61 112.46 397.602C112.665 397.598 112.938 396.756 112.321 396.663L100.932 396.925C100.936 397.483 100.953 397.867 100.953 397.867Z" fill="#2A323E"/>
<path d="M100.303 382.39L112.927 385.833L130.427 309.802L114.361 306.645C114.361 306.645 108.336 310.662 108.336 319.557C108.336 328.451 105.754 351.977 104.319 357.141C102.885 362.306 100.303 382.39 100.303 382.39Z" fill="#2A323E"/>
<path d="M110.726 309.324L137.696 310.089L139.799 307.22C139.799 307.22 143.051 271.261 133.679 267.435C124.306 263.61 116.655 269.923 115.891 279.103C115.126 288.284 111.492 303.012 111.492 303.012C111.492 303.012 110.39 308.111 110.726 309.324Z" fill="#6099F7"/>
<path d="M138.554 275.134L126.926 284.9C126.926 284.9 128.929 289.724 132.569 289.36C134.2 289.197 137.259 287.826 140.137 286.364C139.897 282.365 139.418 278.41 138.554 275.134Z" fill="#648DD0"/>
<path d="M155.1 251.847L161.412 258.733L156.821 265.906C156.821 265.906 131.001 288.284 130.14 287.71C129.278 287.137 125.262 287.137 124.975 281.972C124.688 276.808 130.713 271.93 130.713 271.93L150.796 256.724L155.1 251.847Z" fill="#6099F7"/>
<path d="M155.293 249.265C155.293 249.265 153.668 250.603 154.434 251.942C155.199 253.282 161.606 259.689 161.606 259.689C161.606 259.689 164.856 259.211 163.614 257.202C162.37 255.194 156.442 248.691 155.293 249.265Z" fill="#648DD0"/>
<path d="M108.477 317.267C108.503 319.49 108.759 321.974 109.58 323.862C111.265 327.738 114.245 367.473 115.222 375.647L125.097 332.966L118.011 307.363L114.362 306.646C114.362 306.646 109.377 309.971 108.477 317.267Z" fill="#242C37"/>
<path d="M121.531 390.996L135.302 387.841L137.024 307.507L114.359 306.645C114.359 306.645 109.203 311.333 110.342 314.25C117.515 332.611 121.531 390.996 121.531 390.996Z" fill="#2A323E"/>
<path d="M135.212 268.01C135.212 268.01 129.474 267.627 127.561 269.158C125.648 270.688 120.675 297.848 120.675 297.848L112.736 296.818C111.072 304.473 110.139 308.765 108.475 316.42L111.244 315.568L136.359 312.576L139.801 307.221L140.375 299.187C140.375 299.187 136.932 302.056 131.959 302.056C126.986 302.056 125.074 299.569 125.074 299.569L129.856 271.452C129.856 271.452 132.916 268.392 135.212 268.01Z" fill="#2A323E"/>
<path d="M120.099 253.952C120.099 253.952 116.656 251.082 116.37 253.856C116.082 256.629 118.952 255.959 118.952 255.959L119.144 261.028C119.144 261.028 108.241 261.22 111.588 250.795C111.588 250.795 110.248 246.013 114.457 243.814C118.665 241.614 124.116 243.814 127.177 241.902C127.177 241.902 128.994 239.989 129.28 242.475C129.28 242.475 131.193 241.71 130.524 243.91C129.854 246.109 131.193 247.735 128.228 248.309C125.264 248.883 119.43 248.883 119.43 248.883C119.43 248.883 122.395 250.413 120.099 253.952Z" fill="#2A323E"/>
<path d="M119.883 253.067C119.883 253.067 121.318 261.315 122.61 261.674C123.901 262.033 131.432 263.898 131.002 257.012C131.002 257.012 129.495 255.004 127.774 255.864C126.052 256.725 122.681 259.379 122.681 259.379C122.681 259.379 122.108 251.776 120.673 250.485C119.238 249.194 119.883 253.067 119.883 253.067Z" fill="#2A323E"/>
<path opacity="0.25" d="M278.037 606.709C278.037 608.962 259.944 610.788 237.625 610.788C215.307 610.788 197.213 608.962 197.213 606.709C197.213 604.455 215.307 602.628 237.625 602.628C259.944 602.628 278.037 604.454 278.037 606.709Z" fill="#F4F4F4"/>
<path d="M267.986 393.833L264.105 423.138C264.105 423.138 265.176 433.04 272.536 424.744L274.275 394.234C274.275 394.234 272.67 391.157 271.332 391.157C268.387 391.157 267.986 393.833 267.986 393.833Z" fill="#FFD2A5"/>
<path d="M211.679 488.808L188.367 470.633C188.367 470.633 179.284 466.545 182.716 477.092L208.151 494.03C208.151 494.03 211.618 494.202 212.295 493.048C213.785 490.508 211.679 488.808 211.679 488.808Z" fill="#FFD2A5"/>
<path d="M273.471 395.038C273.471 395.038 276.014 391.158 276.616 390.354C277.218 389.552 280.028 384.734 276.616 383.931C276.616 383.931 276.749 382.259 275.144 382.527C275.144 382.527 275.144 380.787 273.538 381.189C273.538 381.189 275.88 374.23 275.01 373.294C274.14 372.357 273.805 372.625 273.805 372.625L271.196 381.456C271.196 381.456 270.794 379.449 269.323 379.65C269.323 379.65 268.721 383.062 267.918 383.999C267.115 384.935 268.721 393.298 268.721 393.298C268.721 393.298 269.122 396.844 273.471 395.038Z" fill="#FFD2A5"/>
<path d="M213.078 569.036L209.688 600.616C209.688 600.616 209.158 605.438 212.543 605.611C217.452 605.864 218.757 601.423 218.757 601.423L224.329 566.254L213.078 569.036Z" fill="#FFD2A5"/>
<path d="M256.822 569.036L260.212 600.616C260.212 600.616 260.743 605.438 257.358 605.611C252.449 605.864 251.143 601.423 251.143 601.423L245.572 566.254L256.822 569.036Z" fill="#FFD2A5"/>
<path d="M216.111 492.317L207.654 595.545H224.069L235.023 518.009L247.529 596.401H261.803L255.719 490.89L216.111 492.317Z" fill="#2A323E"/>
<path d="M207.457 606.147C207.457 606.147 207.725 597.94 214.951 597.94C220.393 597.94 220.035 606.147 220.035 606.147H207.457Z" fill="#2A323E"/>
<path d="M220.086 606.147H207.457V608.09H220.086V606.147Z" fill="#2A323E"/>
<path d="M251.145 601.423C251.145 601.423 256.969 606.592 260.27 601.151C260.27 601.151 269.187 603.411 269.236 606.44L250.903 607.217C250.903 607.217 249.603 602.677 251.145 601.423Z" fill="#2A323E"/>
<path d="M269.241 606.147H250.277V608.09H269.241V606.147Z" fill="#2A323E"/>
<path d="M263.789 413.081C263.789 413.081 258.484 427.894 265.112 429.682C271.741 431.47 278.899 433.169 276.49 415.483L263.789 413.081Z" fill="#6099F7"/>
<path d="M256.434 472.693C256.434 472.693 263.214 455.923 266.069 450.57C268.924 445.218 280.164 432.907 275.703 418.455C273.823 412.363 261.965 421.131 255.364 428.09C248.763 435.048 236.987 436.475 236.987 436.475C236.987 436.475 227.352 469.66 256.434 472.693Z" fill="#6099F7"/>
<path d="M206.834 446.823C206.834 446.823 181.32 466.092 179.893 474.299C178.465 482.506 184.71 484.291 187.386 483.577C190.062 482.863 204.158 465.913 213.256 482.506C213.256 482.506 224.497 452.889 206.834 446.823Z" fill="#6099F7"/>
<path d="M180.606 476.083C180.606 476.083 178.466 483.041 191.847 492.14L200.41 479.116L192.917 471.98C192.917 471.98 185.066 467.162 180.606 476.083Z" fill="#6099F7"/>
<path d="M263.72 408.475C263.72 408.475 259.204 410.133 262.577 413.007C265.951 415.882 279.047 416.319 279.047 416.319C279.047 416.319 284.576 413.678 279.384 411.288C274.191 408.899 274.764 412.873 263.72 408.475Z" fill="#648DD0"/>
<path d="M192.926 494.542C192.926 494.542 188.468 496.35 189.034 491.955C189.601 487.559 199.005 478.433 199.005 478.433C199.005 478.433 204.874 476.673 202.635 481.932C200.396 487.191 198.149 483.863 192.926 494.542Z" fill="#648DD0"/>
<path d="M261.072 500.348C257.504 492.319 258.574 476.262 257.325 465.557C256.076 454.852 247.513 437.367 247.513 437.367C242.389 436.361 237.741 436.043 233.554 436.206C226.395 443.963 219.069 441.136 216.765 439.936C207.984 443.767 203.801 449.143 203.801 449.143C209.867 456.814 212.96 481.278 211.249 485.093C208.529 491.16 213.257 496.958 212.008 500.883C210.578 505.374 211.651 506.77 214.505 508.197C217.359 509.625 230.027 504.808 236.986 504.273C243.944 503.738 254.828 506.77 256.969 506.414C259.11 506.057 263.022 504.735 261.072 500.348Z" fill="#6099F7"/>
<path d="M207.814 492.23C207.814 492.23 209.331 499.099 209.331 500.259C209.331 501.419 210.491 508.733 210.491 508.733C210.491 508.733 212.007 508.823 212.007 507.127C212.007 505.433 211.65 501.865 211.65 501.865L215.397 505.879C215.397 505.879 216.29 504.63 215.843 504.006C215.397 503.381 213.792 501.865 213.792 501.865L216.379 502.311C216.379 502.311 216.736 501.062 216.201 500.884C215.666 500.705 212.989 499.902 212.989 499.902L215.888 500.081C215.888 500.081 215.798 499.144 215.174 499.099C214.55 499.055 212.945 496.155 212.945 496.155C212.945 496.155 214.131 489.666 209.043 486.981L207.814 492.23Z" fill="#FFD2A5"/>
<path d="M234.397 419.392C234.397 426.116 228.945 431.569 222.22 431.569C215.494 431.569 210.043 426.117 210.043 419.392C210.043 412.667 215.494 407.215 222.22 407.215C228.945 407.215 234.397 412.667 234.397 419.392Z" fill="#CD9677"/>
<path d="M227.004 423.73L217.092 426.003L221.159 443.742L231.071 441.469L227.004 423.73Z" fill="#FFD2A5"/>
<path d="M213.254 441.738C213.254 441.738 223.023 435.583 235.601 436.252C235.601 436.252 233.277 443.237 227.84 444.682C219.276 446.957 213.254 441.738 213.254 441.738Z" fill="#648DD0"/>
<path d="M232.763 418.957C232.763 418.957 233.444 415.673 235.664 416.537C237.884 417.401 235.371 424.318 233.963 424.746C232.554 425.174 232.763 418.957 232.763 418.957Z" fill="#FFD2A5"/>
<path d="M212.272 421.901C212.272 421.901 210.576 419.008 208.749 420.538C206.922 422.067 211.518 427.815 212.989 427.77C214.461 427.724 212.272 421.901 212.272 421.901Z" fill="#FFD2A5"/>
<path d="M224.987 406.501C224.987 406.501 215.802 403.828 212.677 408.374C209.818 412.532 209.309 419.593 210.402 425.414C211.4 430.732 210.758 435.94 210.758 435.94L213.526 435.701C213.676 434.193 214.141 429.441 214.103 428.357C214.103 428.357 215.08 432.433 215.166 435.56L232.48 434.066C232.48 434.066 233.786 429.999 234.22 425.235C234.624 420.8 234.156 415.691 234.221 414.529C234.334 412.495 231.41 406.635 224.987 406.501Z" fill="#2A323E"/>
<path d="M232.891 436.213C225.327 436.376 217.533 439.53 214.238 441.114C216.512 443.08 225.047 446.856 232.891 436.213Z" fill="#648DD0"/>
<path d="M207.504 485.161L203.891 491.517L205.496 492.721L208.774 486.097L207.504 485.161Z" fill="#2A323E"/>
<path d="M206.601 493.427C206.453 493.657 206.145 493.724 205.914 493.577L202.368 491.307C202.137 491.16 202.069 490.852 202.217 490.621C202.365 490.389 202.672 490.322 202.903 490.47L206.45 492.74C206.681 492.887 206.749 493.194 206.601 493.427Z" fill="#2A323E"/>
<path opacity="0.15" d="M436.015 508.863C436.015 508.16 433.576 507.59 430.568 507.59C427.56 507.59 425.121 508.16 425.121 508.863C425.121 509.567 427.56 510.137 430.568 510.137C433.576 510.137 436.015 509.567 436.015 508.863Z" fill="#2A323E"/>
<path opacity="0.15" d="M455.23 504.7C455.23 503.877 452.376 503.21 448.855 503.21C445.335 503.21 442.48 503.877 442.48 504.7C442.48 505.523 445.335 506.19 448.855 506.19C452.376 506.19 455.23 505.523 455.23 504.7Z" fill="#2A323E"/>
<path opacity="0.15" d="M459.887 513.087C459.887 512.485 457.802 511.998 455.23 511.998C452.659 511.998 450.574 512.486 450.574 513.087C450.574 513.688 452.659 514.175 455.23 514.175C457.802 514.175 459.887 513.688 459.887 513.087Z" fill="#2A323E"/>
<path opacity="0.15" d="M442.482 515.911C442.482 515.466 440.939 515.106 439.036 515.106C437.133 515.106 435.59 515.466 435.59 515.911C435.59 516.356 437.133 516.716 439.036 516.716C440.939 516.716 442.482 516.356 442.482 515.911Z" fill="#2A323E"/>
<path opacity="0.15" d="M445.15 511.471C445.15 511.18 444.141 510.945 442.896 510.945C441.652 510.945 440.643 511.181 440.643 511.471C440.643 511.762 441.652 511.998 442.896 511.998C444.141 511.998 445.15 511.762 445.15 511.471Z" fill="#2A323E"/>
<path opacity="0.15" d="M328.764 530.064C328.764 529.13 325.524 528.372 321.526 528.372C317.528 528.372 314.287 529.13 314.287 530.064C314.287 530.999 317.528 531.756 321.526 531.756C325.523 531.756 328.764 530.999 328.764 530.064Z" fill="#2A323E"/>
<path opacity="0.15" d="M354.3 524.531C354.3 523.437 350.507 522.551 345.829 522.551C341.15 522.551 337.357 523.438 337.357 524.531C337.357 525.625 341.15 526.511 345.829 526.511C350.507 526.511 354.3 525.625 354.3 524.531Z" fill="#2A323E"/>
<path opacity="0.15" d="M360.487 535.677C360.487 534.878 357.717 534.231 354.299 534.231C350.882 534.231 348.111 534.878 348.111 535.677C348.111 536.476 350.882 537.123 354.299 537.123C357.717 537.123 360.487 536.476 360.487 535.677Z" fill="#2A323E"/>
<path opacity="0.15" d="M337.36 539.43C337.36 538.839 335.31 538.36 332.78 538.36C330.251 538.36 328.201 538.839 328.201 539.43C328.201 540.021 330.251 540.5 332.78 540.5C335.31 540.5 337.36 540.021 337.36 539.43Z" fill="#2A323E"/>
<path opacity="0.15" d="M340.905 533.53C340.905 533.143 339.563 532.83 337.909 532.83C336.255 532.83 334.914 533.144 334.914 533.53C334.914 533.917 336.255 534.23 337.909 534.23C339.563 534.23 340.905 533.917 340.905 533.53Z" fill="#2A323E"/>
<path opacity="0.15" d="M143.958 502.277C143.958 501.639 141.745 501.122 139.016 501.122C136.287 501.122 134.074 501.639 134.074 502.277C134.074 502.915 136.287 503.432 139.016 503.432C141.745 503.432 143.958 502.915 143.958 502.277Z" fill="#2A323E"/>
<path opacity="0.15" d="M161.391 498.499C161.391 497.753 158.802 497.147 155.608 497.147C152.413 497.147 149.824 497.753 149.824 498.499C149.824 499.246 152.413 499.851 155.608 499.851C158.802 499.851 161.391 499.246 161.391 498.499Z" fill="#2A323E"/>
<path opacity="0.15" d="M165.615 506.109C165.615 505.563 163.724 505.121 161.391 505.121C159.057 505.121 157.166 505.563 157.166 506.109C157.166 506.654 159.057 507.096 161.391 507.096C163.724 507.096 165.615 506.654 165.615 506.109Z" fill="#2A323E"/>
<path opacity="0.15" d="M149.823 508.671C149.823 508.267 148.423 507.94 146.696 507.94C144.97 507.94 143.57 508.267 143.57 508.671C143.57 509.074 144.97 509.402 146.696 509.402C148.423 509.402 149.823 509.074 149.823 508.671Z" fill="#2A323E"/>
<path opacity="0.15" d="M152.248 504.643C152.248 504.379 151.333 504.165 150.203 504.165C149.074 504.165 148.158 504.379 148.158 504.643C148.158 504.907 149.074 505.121 150.203 505.121C151.333 505.121 152.248 504.907 152.248 504.643Z" fill="#2A323E"/>
<path opacity="0.15" d="M39.7408 499.286C39.7408 498.469 36.9092 497.807 33.4163 497.807C29.9234 497.807 27.0918 498.469 27.0918 499.286C27.0918 500.102 29.9234 500.764 33.4163 500.764C36.9092 500.764 39.7408 500.102 39.7408 499.286Z" fill="#2A323E"/>
<path opacity="0.15" d="M62.0535 494.451C62.0535 493.495 58.7395 492.721 54.6517 492.721C50.5639 492.721 47.25 493.495 47.25 494.451C47.25 495.407 50.5639 496.181 54.6517 496.181C58.7395 496.181 62.0535 495.406 62.0535 494.451Z" fill="#2A323E"/>
<path opacity="0.15" d="M67.4597 504.189C67.4597 503.491 65.0389 502.925 62.0531 502.925C59.0673 502.925 56.6465 503.491 56.6465 504.189C56.6465 504.887 59.0673 505.453 62.0531 505.453C65.0389 505.453 67.4597 504.887 67.4597 504.189Z" fill="#2A323E"/>
<path opacity="0.15" d="M47.2506 507.469C47.2506 506.952 45.4592 506.533 43.2493 506.533C41.0395 506.533 39.248 506.952 39.248 507.469C39.248 507.985 41.0395 508.404 43.2493 508.404C45.4592 508.404 47.2506 507.985 47.2506 507.469Z" fill="#2A323E"/>
<path opacity="0.15" d="M50.3493 502.314C50.3493 501.976 49.1774 501.702 47.7325 501.702C46.2871 501.702 45.1152 501.976 45.1152 502.314C45.1152 502.652 46.2871 502.926 47.7325 502.926C49.1774 502.925 50.3493 502.651 50.3493 502.314Z" fill="#2A323E"/>
</svg>
